<?xml version="1.0" standalone="no"?><!DOCTYPE svg PUBLIC "-//W3C//DTD SVG 1.1//EN" "http://www.w3.org/Graphics/SVG/1.1/DTD/svg11.dtd"><svg t="1653384826822" class="icon" viewBox="0 0 1024 1024" version="1.1" xmlns="http://www.w3.org/2000/svg" p-id="4967" xmlns:xlink="http://www.w3.org/1999/xlink" width="200" height="200"><defs><style type="text/css"></style></defs><path d="M512 0a512 512 0 1 0 512 512A512 512 0 0 0 512 0z m193.50069 630.554483a52.965517 52.965517 0 0 1-74.946207 74.946207L512 586.946207 393.357241 705.50069a52.965517 52.965517 0 0 1-74.946207-74.946207L437.053793 512 318.49931 393.357241a52.965517 52.965517 0 1 1 74.946207-74.946207L512 437.053793l118.642759-118.554483a52.965517 52.965517 0 0 1 74.946207 74.946207L586.946207 512z" fill="#F84647" p-id="4968"></path></svg>