<?xml version="1.0" standalone="no"?><!DOCTYPE svg PUBLIC "-//W3C//DTD SVG 1.1//EN" "http://www.w3.org/Graphics/SVG/1.1/DTD/svg11.dtd"><svg t="1648104954313" class="icon" viewBox="0 0 1024 1024" version="1.1" xmlns="http://www.w3.org/2000/svg" p-id="3542" xmlns:xlink="http://www.w3.org/1999/xlink" width="200" height="200"><defs><style type="text/css"></style></defs><path d="M512 1024C794.769789 1024 1024 794.769806 1024 512 1024 229.230194 794.769789 0 512 0 229.230211 0 0 229.230194 0 512 0 794.769806 229.230211 1024 512 1024ZM431.083941 598.097067 714.191064 314.989909C736.716032 292.464981 773.148496 292.377202 795.917352 315.146069 818.528563 337.757298 818.528779 374.417124 796.073506 396.872363L475.378443 717.567431C464.765298 728.180565 451.064639 733.812565 437.160454 734.41957 420.428584 736.361188 403.030932 730.950087 390.430441 718.349596L227.825095 555.744256C205.68312 533.602304 205.588645 497.797575 227.960024 475.42619 250.176518 453.209657 286.435146 453.448249 308.27813 475.29125L431.083941 598.097067Z" p-id="3543"></path></svg>