<?xml version="1.0" standalone="no"?><!DOCTYPE svg PUBLIC "-//W3C//DTD SVG 1.1//EN" "http://www.w3.org/Graphics/SVG/1.1/DTD/svg11.dtd"><svg t="1643257668297" class="icon" viewBox="0 0 1024 1024" version="1.1" xmlns="http://www.w3.org/2000/svg" p-id="4226" xmlns:xlink="http://www.w3.org/1999/xlink" width="200" height="200"><defs><style type="text/css"></style></defs><path d="M512 276.8c-128 0-235.2 107.2-235.2 235.2S384 747.2 512 747.2 747.2 640 747.2 512 640 276.8 512 276.8z m0 384c-81.6 0-148.8-68.8-148.8-148.8s68.8-148.8 148.8-148.8 148.8 68.8 148.8 148.8-67.2 148.8-148.8 148.8zM512 171.2c25.6 0 43.2-17.6 43.2-43.2V43.2C555.2 17.6 537.6 0 512 0s-43.2 17.6-43.2 43.2V128c0 25.6 17.6 43.2 43.2 43.2zM512 852.8c-25.6 0-43.2 17.6-43.2 43.2v84.8c0 25.6 17.6 43.2 43.2 43.2s43.2-17.6 43.2-43.2V896c0-25.6-17.6-43.2-43.2-43.2zM785.6 281.6c12.8 0 20.8-4.8 30.4-12.8l51.2-51.2c17.6-17.6 17.6-43.2 0-59.2s-43.2-17.6-59.2 0l-51.2 51.2c-17.6 17.6-17.6 43.2 0 59.2 6.4 8 16 12.8 28.8 12.8zM209.6 755.2l-51.2 51.2c-17.6 17.6-17.6 43.2 0 59.2 8 8 20.8 12.8 30.4 12.8s20.8-4.8 30.4-12.8l51.2-51.2c17.6-17.6 17.6-43.2 0-59.2-19.2-17.6-44.8-17.6-60.8 0zM980.8 468.8H896c-25.6 0-43.2 17.6-43.2 43.2s17.6 43.2 43.2 43.2h84.8c25.6 0 43.2-17.6 43.2-43.2s-17.6-43.2-43.2-43.2zM171.2 512c0-25.6-17.6-43.2-43.2-43.2H43.2C17.6 468.8 0 486.4 0 512s17.6 43.2 43.2 43.2H128c25.6 0 43.2-17.6 43.2-43.2zM814.4 755.2c-17.6-17.6-43.2-17.6-59.2 0s-17.6 43.2 0 59.2l51.2 51.2c8 8 20.8 12.8 30.4 12.8 8 0 20.8-4.8 30.4-12.8 17.6-17.6 17.6-43.2 0-59.2l-52.8-51.2zM209.6 268.8c8 8 20.8 12.8 30.4 12.8s20.8-4.8 30.4-12.8c17.6-17.6 17.6-43.2 0-59.2l-51.2-51.2c-17.6-17.6-43.2-17.6-59.2 0s-17.6 43.2 0 59.2l49.6 51.2z" p-id="4227"></path></svg>