<?xml version="1.0" encoding="UTF-8" standalone="no" ?>
<!DOCTYPE svg PUBLIC "-//W3C//DTD SVG 1.1//EN" "http://www.w3.org/Graphics/SVG/1.1/DTD/svg11.dtd">
<svg xmlns="http://www.w3.org/2000/svg" xmlns:xlink="http://www.w3.org/1999/xlink" version="1.1" width="27" height="27" viewBox="0 0 200 200" xml:space="preserve">
<desc>Created with Fabric.js 4.6.0</desc>
<defs>
</defs>
<g transform="matrix(0.2 0 0 0.2 100 100)" id="Mmz_AKXT8SXoHpW_1TaOG"  >
<path style="stroke: none; stroke-width: 1; stroke-dasharray: none; stroke-linecap: butt; stroke-dashoffset: 0; stroke-linejoin: miter; stroke-miterlimit: 4; fill: rgb(0,0,0); fill-rule: nonzero; opacity: 1;" vector-effect="non-scaling-stroke"  transform=" translate(-512.01, -512.01)" d="M 112.014222 880.014222 C 112.014222 897.706666 126.293333 912.014222 143.985778 912.014222 L 879.985778 912.014222 C 897.7066669999999 912.014222 911.985778 897.706666 911.985778 879.985778 L 911.985778 460.003556 L 112.042667 460.003556 L 112.042667 879.985778 z M 880.014222 183.97866699999997 L 711.964444 183.97866699999997 L 711.964444 119.97866699999997 C 711.9332882702709 115.5819078736783 708.3683982546978 112.02970365661925 703.971556 112.01422199999998 L 647.964444 112.01422199999998 C 643.5676017453021 112.02970365661925 640.0027117297291 115.5819078736783 639.971556 119.97866699999997 L 639.971556 183.97866699999997 L 383.97155599999996 183.97866699999997 L 383.97155599999996 119.97866699999997 C 383.94040026558923 115.58190748539116 380.3755096449361 112.0297031098258 375.978667 112.01422199999998 L 320 112.01422199999998 C 315.60315735506396 112.0297031098258 312.03826673441074 115.58190748539116 312.007111 119.97866699999997 L 312.007111 183.97866699999997 L 144.014222 183.97866699999997 C 126.29333299999999 183.97866699999997 112.01422199999999 198.28622299999998 112.01422199999999 216.00711099999998 L 112.01422199999999 391.992889 L 912.014222 391.992889 L 912.014222 216.007111 C 912.014222 198.286222 897.706666 184.007111 879.985778 184.007111 z" stroke-linecap="round" />
</g>
</svg>