<?xml version="1.0" standalone="no"?><!DOCTYPE svg PUBLIC "-//W3C//DTD SVG 1.1//EN" "http://www.w3.org/Graphics/SVG/1.1/DTD/svg11.dtd"><svg t="1656745185631" class="icon" viewBox="0 0 1024 1024" version="1.1" xmlns="http://www.w3.org/2000/svg" p-id="10687" xmlns:xlink="http://www.w3.org/1999/xlink" width="200" height="200"><defs><style type="text/css"></style></defs><path d="M510.976 954.88c-119.296 0-231.424-46.08-315.904-130.048-84.48-83.968-130.56-195.072-130.56-313.856 0-118.784 46.592-229.888 131.072-313.856 84.48-83.968 196.608-130.048 315.904-130.048 119.296 0 231.424 46.08 315.904 130.048 174.08 173.056 174.08 454.656 0 627.712C742.4 908.8 630.272 954.88 510.976 954.88L510.976 954.88 510.976 954.88 510.976 954.88 510.976 954.88zM510.976 125.44c-103.936 0-201.216 39.936-274.432 113.152-73.216 72.704-113.664 169.984-113.664 272.896 0 102.912 40.448 200.192 113.664 272.896 73.216 72.704 171.008 113.152 274.432 113.152 103.936 0 201.216-40.448 274.944-113.152 151.552-150.528 151.552-395.264 0-545.792C712.192 165.376 614.912 125.44 510.976 125.44L510.976 125.44 510.976 125.44 510.976 125.44 510.976 125.44zM352.256 770.56 352.256 770.56 352.256 770.56c-37.888 0-36.352-41.472-36.352-41.472s47.616-96.768 194.56-96.768 215.552 96.768 215.552 96.768c0 41.472-39.424 41.472-39.424 41.472s-69.632-82.944-176.128-82.944C404.48 687.616 352.256 770.56 352.256 770.56L352.256 770.56zM381.44 368.64c-30.208 0-54.784 24.576-54.784 54.272 0 30.208 24.576 54.272 54.784 54.272 30.208 0 54.784-24.576 54.784-54.272C435.712 392.704 411.648 368.64 381.44 368.64L381.44 368.64 381.44 368.64 381.44 368.64 381.44 368.64zM661.504 368.64c-30.208 0-54.784 24.576-54.784 54.272 0 30.208 24.576 54.272 54.784 54.272 30.208 0 54.784-24.576 54.784-54.272C716.288 392.704 691.712 368.64 661.504 368.64L661.504 368.64 661.504 368.64 661.504 368.64 661.504 368.64z" p-id="10688"></path></svg>