<?xml version="1.0" standalone="no"?><!DOCTYPE svg PUBLIC "-//W3C//DTD SVG 1.1//EN" "http://www.w3.org/Graphics/SVG/1.1/DTD/svg11.dtd"><svg t="1654183448526" class="icon" viewBox="0 0 1024 1024" version="1.1" xmlns="http://www.w3.org/2000/svg" p-id="13224" xmlns:xlink="http://www.w3.org/1999/xlink" width="200" height="200"><defs><style type="text/css"></style></defs><path d="M149.333333 714.666667c11.264 0 22.101333-1.962667 32.128-5.546667a96 96 0 0 0 191.872-5.12v-384a96 96 0 0 0-191.872-5.12A96 96 0 0 0 53.333333 405.333333v213.333334a96 96 0 0 0 96 96zM650.666667 320a96 96 0 0 1 191.872-5.12A96 96 0 0 1 970.666667 405.333333v213.333334a96 96 0 0 1-128.128 90.453333 96 96 0 0 1-191.872-5.12v-384zM597.333333 448h-170.666666v128h170.666666v-128z" p-id="13225"></path></svg>