<?xml version="1.0" standalone="no"?><!DOCTYPE svg PUBLIC "-//W3C//DTD SVG 1.1//EN" "http://www.w3.org/Graphics/SVG/1.1/DTD/svg11.dtd"><svg t="1654525873424" class="icon" viewBox="0 0 1024 1024" version="1.1" xmlns="http://www.w3.org/2000/svg" p-id="4707" xmlns:xlink="http://www.w3.org/1999/xlink" width="200" height="200"><defs><style type="text/css"></style></defs><path d="M960 710.4c0 44.8-25.6 83.2-64 102.4l-345.6 192c-19.2 12.8-44.8 19.2-70.4 19.2s-51.2-6.4-70.4-25.6L76.8 812.8C32 800 0 761.6 0 710.4V300.8c6.4-38.4 32-70.4 70.4-89.6L409.6 25.6C428.8 6.4 454.4 0 480 0s51.2 6.4 70.4 25.6L908.8 224c32 19.2 51.2 51.2 51.2 89.6v396.8z" fill="#F8BC4D" p-id="4708"></path><path d="M633.6 684.8l64-192-108.8 25.6c-12.8 6.4-25.6 0-32-6.4l-6.4-6.4-64-121.6-70.4 115.2c0 6.4-6.4 6.4-6.4 12.8-12.8 6.4-25.6 12.8-38.4 6.4l-108.8-25.6 64 192h307.2z m19.2 83.2H307.2c-19.2 0-32-12.8-38.4-25.6L179.2 448c0-6.4-6.4-12.8-6.4-19.2 0-19.2 12.8-32 25.6-32h19.2l147.2 44.8 89.6-160c6.4-12.8 12.8-19.2 19.2-25.6h12.8c6.4 0 6.4 0 12.8 6.4 0 0 6.4 0 6.4 6.4 6.4 0 12.8 6.4 12.8 6.4l76.8 160 140.8-38.4h19.2c12.8 6.4 25.6 19.2 25.6 32 0 6.4 0 12.8-6.4 19.2l-89.6 294.4c0 12.8-12.8 25.6-32 25.6z" fill="#FFFFFF" p-id="4709"></path></svg>