<?xml version="1.0" standalone="no"?><!DOCTYPE svg PUBLIC "-//W3C//DTD SVG 1.1//EN" "http://www.w3.org/Graphics/SVG/1.1/DTD/svg11.dtd"><svg t="1670129943028" class="icon" viewBox="0 0 1024 1024" version="1.1" xmlns="http://www.w3.org/2000/svg" p-id="5695" xmlns:xlink="http://www.w3.org/1999/xlink" width="200" height="200"><path d="M1023.969343 511.946281A511.77753 511.77753 0 1 1 626.119623 12.873428a503.76806 503.76806 0 0 1 82.856588 26.376014 512.329907 512.329907 0 0 1 314.993132 472.696839z" fill="#EA5D5B" p-id="5696"></path><path d="M511.915624 530.450919a41.428294 41.428294 0 0 1-41.428294-41.428294V233.962426a41.428294 41.428294 0 1 1 82.856589 0v255.060199a41.428294 41.428294 0 0 1-41.428295 41.428294z" fill="#F5B4B5" p-id="5697"></path><path d="M754.961618 697.406946a41.428294 41.428294 0 0 1-22.233185-6.904716L489.544345 534.593749a41.428294 41.428294 0 0 1 44.880653-69.737629L777.470991 621.455073a41.428294 41.428294 0 0 1-22.509373 76.228062z" fill="#F5B4B5" p-id="5698"></path><path d="M512.053719 499.655887m-69.323346 0a69.323346 69.323346 0 1 0 138.646692 0 69.323346 69.323346 0 1 0-138.646692 0Z" fill="#FAD8D7" p-id="5699"></path></svg>