<?xml version="1.0" standalone="no"?><!DOCTYPE svg PUBLIC "-//W3C//DTD SVG 1.1//EN" "http://www.w3.org/Graphics/SVG/1.1/DTD/svg11.dtd"><svg t="1650533162672" class="icon" viewBox="0 0 1024 1024" version="1.1" xmlns="http://www.w3.org/2000/svg" p-id="16435" xmlns:xlink="http://www.w3.org/1999/xlink" width="200" height="200"><defs><style type="text/css"></style></defs><path d="M190.57142832 174.5h642.85714336c70.71428584 0 128.57142832 57.85714248 128.57142832 128.57142832V865.57142832c0 45-35.35714248 80.35714248-80.35714248 80.35714336H190.57142832c-70.71428584 0-128.57142832-57.85714248-128.57142832-128.5714292v-514.28571416c0-70.71428584 57.85714248-128.57142832 128.57142832-128.57142832z" fill="#FFBB96" p-id="16436"></path><path d="M190.57142832 174.5h642.85714336c70.71428584 0 128.57142832 57.85714248 128.57142832 128.57142832V704.85714248l-128.57142832 115.71428584-3.21428584 3.21428584-128.57142832 122.14285752H190.57142832c-70.71428584 0-128.57142832-57.85714248-128.57142832-128.5714292v-514.28571416c0-70.71428584 57.85714248-128.57142832 128.57142832-128.57142832z" fill="#CF5A1A" p-id="16437"></path><path d="M190.57142832 174.5h642.85714336c70.71428584 0 128.57142832 57.85714248 128.57142832 128.57142832V704.85714248h-176.78571416c-45 0-80.35714248 35.35714248-80.35714336 80.35714336v160.71428584H190.57142832c-70.71428584 0-128.57142832-57.85714248-128.57142832-128.5714292v-514.28571416c0-70.71428584 57.85714248-128.57142832 128.57142832-128.57142832z" fill="#FF7A45" p-id="16438"></path><path d="M351.28571416 78.07142832c19.28571416 0 32.14285752 12.85714248 32.14285752 32.14285752v147.85714248c0 19.28571416-12.85714248 32.14285752-32.14285752 32.14285752s-32.14285752-12.85714248-32.14285664-32.14285752V110.21428584c0-19.28571416 12.85714248-32.14285752 32.14285664-32.14285752zM672.71428584 78.07142832c19.28571416 0 32.14285752 12.85714248 32.14285664 32.14285752v147.85714248c0 19.28571416-12.85714248 32.14285752-32.14285664 32.14285752s-32.14285752-12.85714248-32.14285752-32.14285752V110.21428584c0-19.28571416 12.85714248-32.14285752 32.14285752-32.14285752z" fill="#FFBB96" p-id="16439"></path><path d="M335.21428584 495.92857168m-48.21428584-1e-8a48.21428584 48.21428584 0 1 0 96.42857168 0 48.21428584 48.21428584 0 1 0-96.42857168 0Z" fill="#FFBB96" p-id="16440"></path><path d="M512 463.78571416h192.85714248c19.28571416 0 32.14285752 12.85714248 32.14285752 32.14285752s-12.85714248 32.14285752-32.14285752 32.14285665h-192.85714248c-19.28571416 0-32.14285752-12.85714248-32.14285752-32.14285665s12.85714248-32.14285752 32.14285752-32.14285752zM512 624.5h192.85714248c19.28571416 0 32.14285752 12.85714248 32.14285752 32.14285752s-12.85714248 32.14285752-32.14285752 32.14285664h-192.85714248c-19.28571416 0-32.14285752-12.85714248-32.14285752-32.14285664s12.85714248-32.14285752 32.14285752-32.14285752z" fill="#FFBB96" p-id="16441"></path><path d="M335.21428584 656.64285752m-48.21428584 0a48.21428584 48.21428584 0 1 0 96.42857168 0 48.21428584 48.21428584 0 1 0-96.42857168 0Z" fill="#FFBB96" p-id="16442"></path></svg>