<?xml version="1.0" standalone="no"?><!DOCTYPE svg PUBLIC "-//W3C//DTD SVG 1.1//EN" "http://www.w3.org/Graphics/SVG/1.1/DTD/svg11.dtd"><svg t="1643251161135" class="icon" viewBox="0 0 1024 1024" version="1.1" xmlns="http://www.w3.org/2000/svg" p-id="2056" xmlns:xlink="http://www.w3.org/1999/xlink" width="200" height="200"><defs><style type="text/css"></style></defs><path d="M793.6 678.4c29.866667-51.2 81.066667-76.8 132.266667-72.533333 8.533333-29.866667 12.8-64 12.8-98.133334 0-29.866667-4.266667-59.733333-8.533334-85.333333-51.2 8.533333-106.666667-21.333333-136.533333-72.533333-29.866667-51.2-25.6-115.2 8.533333-153.6-46.933333-42.666667-98.133333-72.533333-157.866666-93.866667-17.066667 51.2-68.266667 85.333333-132.266667 85.333333s-110.933333-34.133333-132.266667-85.333333c-59.733333 21.333333-110.933333 55.466667-157.866666 98.133333 34.133333 42.666667 38.4 102.4 8.533333 153.6-29.866667 51.2-85.333333 76.8-136.533333 68.266667-4.266667 29.866667-8.533333 59.733333-8.533334 89.6 0 34.133333 4.266667 64 12.8 93.866667 51.2-4.266667 102.4 21.333333 132.266667 72.533333 25.6 51.2 25.6 106.666667-4.266667 149.333333 46.933333 42.666667 98.133333 72.533333 157.866667 89.6 21.333333-46.933333 68.266667-76.8 128-76.8s106.666667 29.866667 128 76.8c59.733333-17.066667 110.933333-51.2 157.866667-89.6-29.866667-42.666667-34.133333-98.133333-4.266667-149.333333z m-281.6 17.066667c-102.4 0-183.466667-81.066667-183.466667-183.466667S409.6 328.533333 512 328.533333s183.466667 81.066667 183.466667 183.466667-81.066667 183.466667-183.466667 183.466667z" p-id="2057"></path></svg>