<?xml version="1.0" standalone="no"?><!DOCTYPE svg PUBLIC "-//W3C//DTD SVG 1.1//EN" "http://www.w3.org/Graphics/SVG/1.1/DTD/svg11.dtd"><svg t="1650899158252" class="icon" viewBox="0 0 1024 1024" version="1.1" xmlns="http://www.w3.org/2000/svg" p-id="26787" xmlns:xlink="http://www.w3.org/1999/xlink" width="200" height="200"><defs><style type="text/css"></style></defs><path d="M0 0m512 0l0 0q512 0 512 512l0 0q0 512-512 512l0 0q-512 0-512-512l0 0q0-512 512-512Z" fill="#F68512" p-id="26788"></path><path d="M415.593412 549.737412l77.552941-77.552941-190.464-190.464a109.206588 109.206588 0 0 0 0 153.6z m185.012706-50.326588a131.674353 131.674353 0 0 0 142.848-38.098824c51.681882-51.681882 62.584471-126.494118 21.775058-165.978353-39.454118-39.454118-114.266353-29.936941-165.978352 21.775059a132.186353 132.186353 0 0 0-38.098824 142.848c-59.843765 61.229176-265.276235 266.631529-265.276235 266.631529l38.098823 38.098824 187.723294-187.723294 187.723294 187.723294 38.098824-38.098824-187.723294-186.368z" fill="#FFFFFF" p-id="26789"></path></svg>