<?xml version="1.0" encoding="UTF-8" standalone="no" ?>
<!DOCTYPE svg PUBLIC "-//W3C//DTD SVG 1.1//EN" "http://www.w3.org/Graphics/SVG/1.1/DTD/svg11.dtd">
<svg xmlns="http://www.w3.org/2000/svg" xmlns:xlink="http://www.w3.org/1999/xlink" version="1.1" width="23" height="23" viewBox="0 0 200 200" xml:space="preserve">
<desc>Created with Fabric.js 4.6.0</desc>
<defs>
</defs>
<g transform="matrix(0.2 0 0 0.2 96.26 98.54)" id="vNcQNYYdHWJ71D0JlRzTO"  >
<path style="stroke: none; stroke-width: 1; stroke-dasharray: none; stroke-linecap: butt; stroke-dashoffset: 0; stroke-linejoin: miter; stroke-miterlimit: 4; fill: rgb(0,0,0); fill-rule: nonzero; opacity: 1;" vector-effect="non-scaling-stroke"  transform=" translate(-492.84, -504.53)" d="M 969.452663 948.21292 L 803.729248 782.490527 C 843.712891 740.6332100000001 874.9268 692.4170690000001 896.582006 639.0168580000001 C 918.783657 584.2669060000001 930.0410489999999 526.425547 930.0410489999999 467.0993700000001 C 930.0410489999999 407.7721700000001 918.783658 349.93081000000006 896.582006 295.1818820000001 C 873.588316 238.4794620000001 839.820234 187.6201210000001 796.216134 144.01499700000008 C 752.61101 100.40987300000008 701.751669 66.64179200000008 645.049249 43.64810200000008 C 590.30032 21.446451 532.457938 10.18906 473.131761 10.18906 C 413.804561 10.18906 355.96320099999997 21.445428 301.214273 43.648103 C 244.511853 66.641793 193.652512 100.409875 150.04738799999998 144.014998 C 106.44226399999997 187.62012099999998 72.67418299999999 238.479463 49.680492999999984 295.18188299999997 C 27.478841999999986 349.93081099999995 16.221449999999983 407.77217099999996 16.221449999999983 467.09937099999996 C 16.221449999999983 526.4255479999999 27.477817999999985 584.267931 49.680492999999984 639.016859 C 72.67418299999999 695.718255 106.44226499999999 746.577597 150.04738799999998 790.1837439999999 C 193.652512 833.787844 244.51185299999997 867.5559259999999 301.214273 890.5496159999999 C 355.96320099999997 912.7512669999999 413.804561 924.0086589999999 473.131761 924.0086589999999 C 532.457938 924.0086589999999 590.3003209999999 912.7512679999999 645.0492489999999 890.5496159999999 C 682.885996 875.206163 718.117405 855.0572639999999 750.332107 830.3966079999999 L 918.80003 998.8645309999999 L 969.452663 948.21292 z M 473.131761 852.377224 C 370.219903 852.377224 273.468349 812.301483 200.69899799999996 739.5321329999999 C 127.92964799999996 666.7627829999999 87.85390699999996 570.011228 87.85390699999996 467.0993699999999 C 87.85390699999996 364.18751199999986 127.92964799999996 267.4359579999999 200.69899799999996 194.66660699999989 C 273.468348 121.89725699999988 370.21990299999993 81.82151599999989 473.131761 81.82151599999989 C 576.043619 81.82151599999989 672.795173 121.89725699999988 745.564524 194.66660699999989 C 818.333874 267.4359569999999 858.409615 364.18751199999986 858.409615 467.0993699999999 C 858.409615 570.011228 818.333874 666.7627819999999 745.564524 739.5321329999999 C 672.795174 812.301484 576.043618 852.377224 473.131761 852.377224 z" stroke-linecap="round" />
</g>
</svg>