<?xml version="1.0" encoding="UTF-8" standalone="no" ?>
<!DOCTYPE svg PUBLIC "-//W3C//DTD SVG 1.1//EN" "http://www.w3.org/Graphics/SVG/1.1/DTD/svg11.dtd">
<svg xmlns="http://www.w3.org/2000/svg" xmlns:xlink="http://www.w3.org/1999/xlink" version="1.1" width="29" height="28.97171" viewBox="0 -0.00000926050647365173 200.1953125 200.00001852101295" xml:space="preserve">
<desc>Created with Fabric.js 4.6.0</desc>
<defs>
</defs>
<g transform="matrix(0.2 0 0 0.2 100 100)" id="gB2PL5en935KlR-p3UfLF"  >
<path style="stroke: none; stroke-width: 1; stroke-dasharray: none; stroke-linecap: butt; stroke-dashoffset: 0; stroke-linejoin: miter; stroke-miterlimit: 4; fill: rgb(0,0,0); fill-rule: nonzero; opacity: 1;" vector-effect="non-scaling-stroke"  transform=" translate(-512.02, -512.02)" d="M 1024.032 494.944 L 923.328 494.944 L 923.328 290.144 L 820.928 290.144 L 820.928 204.8 L 684.384 204.8 L 684.384 494.944 L 343.04 494.944 L 343.04 204.8 L 206.496 204.8 L 206.496 290.144 L 104.096 290.144 L 104.096 494.944 L 0 494.944 L 0 529.088 L 104.096 529.088 L 104.096 733.8879999999999 L 206.496 733.8879999999999 L 206.496 819.232 L 343.04 819.232 L 343.04 529.088 L 684.384 529.088 L 684.384 819.232 L 820.928 819.232 L 820.928 733.8879999999999 L 923.328 733.8879999999999 L 923.328 529.088 L 1024.032 529.088 L 1024.032 494.94399999999996 z M 138.272 699.744 L 138.272 324.288 L 206.528 324.288 L 206.528 699.744 L 138.272 699.744 z M 308.928 785.056 L 240.672 785.056 L 240.672 238.91200000000003 L 308.928 238.91200000000003 L 308.928 785.056 z M 786.816 785.056 L 718.5600000000001 785.056 L 718.5600000000001 238.91200000000003 L 786.816 238.91200000000003 L 786.816 785.056 z M 889.216 699.744 L 820.96 699.744 L 820.96 324.288 L 889.216 324.288 L 889.216 699.744 z" stroke-linecap="round" />
</g>
</svg>