<?xml version="1.0" standalone="no"?><!DOCTYPE svg PUBLIC "-//W3C//DTD SVG 1.1//EN" "http://www.w3.org/Graphics/SVG/1.1/DTD/svg11.dtd"><svg t="1643172709458" class="icon" viewBox="0 0 1024 1024" version="1.1" xmlns="http://www.w3.org/2000/svg" p-id="2780" xmlns:xlink="http://www.w3.org/1999/xlink" width="200" height="200"><defs><style type="text/css"></style></defs><path d="M911.243 346.954c17.665-18.162 26.655-99.762 19.455-133.645-9.28-43.68-29.635-94.8-116.745-135.182-119.825-44.55-172.055 52.227-172.055 52.227-28.37 47.077-67.59 142.865 119.825 184.34 0 0 21.43 13.875 9.215 31.235-12.21 17.36-141.325 199.189-162.83 254.489-21.51 55.3-12.29-129.035-245.787-221.204C128.825 287.042 65.592 580.648 98.102 674.158c42.865 123.3 199.699 215.059 448.556 267.289 73.74 30.72 125.97 6.145 125.97 6.145s177.95-63.225 218.129-282.654c9.22-150.542-8.135-275.397-1.02-290.334C894.903 363.752 894.903 363.752 911.243 346.954z" p-id="2781"></path></svg>