<?xml version="1.0" standalone="no"?><!DOCTYPE svg PUBLIC "-//W3C//DTD SVG 1.1//EN" "http://www.w3.org/Graphics/SVG/1.1/DTD/svg11.dtd"><svg t="1649215362020" class="icon" viewBox="0 0 1024 1024" version="1.1" xmlns="http://www.w3.org/2000/svg" p-id="2361" xmlns:xlink="http://www.w3.org/1999/xlink" width="200" height="200"><defs><style type="text/css"></style></defs><path d="M219.428571 877.714286q0-30.285714-21.428571-51.714286T146.285714 804.571429t-51.714285 21.428571T73.142857 877.714286t21.428572 51.714285T146.285714 950.857143t51.714286-21.428572T219.428571 877.714286z m219.428572 0q0-30.285714-21.428572-51.714286T365.714286 804.571429t-51.714286 21.428571T292.571429 877.714286t21.428571 51.714285T365.714286 950.857143t51.714285-21.428572T438.857143 877.714286z m-219.428572-219.428572q0-30.285714-21.428571-51.714285T146.285714 585.142857t-51.714285 21.428572T73.142857 658.285714t21.428572 51.714286T146.285714 731.428571t51.714286-21.428571T219.428571 658.285714z m438.857143 219.428572q0-30.285714-21.428571-51.714286T585.142857 804.571429t-51.714286 21.428571T512 877.714286t21.428571 51.714285 51.714286 21.428572 51.714286-21.428572 21.428571-51.714285z m-219.428571-219.428572q0-30.285714-21.428572-51.714285T365.714286 585.142857t-51.714286 21.428572T292.571429 658.285714t21.428571 51.714286T365.714286 731.428571t51.714285-21.428571T438.857143 658.285714zM219.428571 438.857143q0-30.285714-21.428571-51.714286T146.285714 365.714286t-51.714285 21.428571T73.142857 438.857143t21.428572 51.714286T146.285714 512t51.714286-21.428571T219.428571 438.857143z m438.857143 219.428571q0-30.285714-21.428571-51.714285T585.142857 585.142857t-51.714286 21.428572T512 658.285714t21.428571 51.714286 51.714286 21.428571 51.714286-21.428571 21.428571-51.714286zM438.857143 438.857143q0-30.285714-21.428572-51.714286T365.714286 365.714286t-51.714286 21.428571T292.571429 438.857143t21.428571 51.714286T365.714286 512t51.714285-21.428571T438.857143 438.857143z m438.857143 438.857143v-219.428572q0-29.714286-21.714286-51.428571t-51.428571-21.714286-51.428572 21.714286-21.714286 51.428571v219.428572q0 29.714286 21.714286 51.428571t51.428572 21.714286 51.428571-21.714286 21.714286-51.428571z m-219.428572-438.857143q0-30.285714-21.428571-51.714286T585.142857 365.714286t-51.714286 21.428571T512 438.857143t21.428571 51.714286T585.142857 512t51.714286-21.428571T658.285714 438.857143z m219.428572-182.857143V109.714286q0-14.857143-10.857143-25.714286t-25.714286-10.857143H109.714286q-14.857143 0-25.714286 10.857143t-10.857143 25.714286v146.285714q0 14.857143 10.857143 25.714286t25.714286 10.857143h731.428571q14.857143 0 25.714286-10.857143t10.857143-25.714286z m0 182.857143q0-30.285714-21.428572-51.714286T804.571429 365.714286t-51.714286 21.428571T731.428571 438.857143t21.428572 51.714286T804.571429 512t51.714285-21.428571T877.714286 438.857143z m73.142857-365.714286v877.714286q0 29.714286-21.714286 51.428571t-51.428571 21.714286H73.142857q-29.714286 0-51.428571-21.714286t-21.714286-51.428571V73.142857q0-29.714286 21.714286-51.428571t51.428571-21.714286h804.571429q29.714286 0 51.428571 21.714286t21.714286 51.428571z" p-id="2362"></path></svg>