<?xml version="1.0" standalone="no"?><!DOCTYPE svg PUBLIC "-//W3C//DTD SVG 1.1//EN" "http://www.w3.org/Graphics/SVG/1.1/DTD/svg11.dtd"><svg t="1656660965830" class="icon" viewBox="0 0 1024 1024" version="1.1" xmlns="http://www.w3.org/2000/svg" p-id="2705" xmlns:xlink="http://www.w3.org/1999/xlink" width="200" height="200"><defs><style type="text/css"></style></defs><path d="M554.666667 213.333333 426.666667 213.333333C403.2 213.333333 384 232.533333 384 256L384 768C384 791.466667 403.2 810.666667 426.666667 810.666667L554.666667 810.666667C578.133333 810.666667 597.333333 791.466667 597.333333 768L597.333333 256C597.333333 232.533333 578.133333 213.333333 554.666667 213.333333M853.333333 213.333333 725.333333 213.333333C701.866667 213.333333 682.666667 232.533333 682.666667 256L682.666667 768C682.666667 791.466667 701.866667 810.666667 725.333333 810.666667L853.333333 810.666667C876.8 810.666667 896 791.466667 896 768L896 256C896 232.533333 876.8 213.333333 853.333333 213.333333M256 213.333333 128 213.333333C104.533333 213.333333 85.333333 232.533333 85.333333 256L85.333333 768C85.333333 791.466667 104.533333 810.666667 128 810.666667L256 810.666667C279.466667 810.666667 298.666667 791.466667 298.666667 768L298.666667 256C298.666667 232.533333 279.466667 213.333333 256 213.333333Z" p-id="2706"></path></svg>