<?xml version="1.0" standalone="no"?><!DOCTYPE svg PUBLIC "-//W3C//DTD SVG 1.1//EN" "http://www.w3.org/Graphics/SVG/1.1/DTD/svg11.dtd"><svg t="1649079135435" class="icon" viewBox="0 0 1024 1024" version="1.1" xmlns="http://www.w3.org/2000/svg" p-id="13827" xmlns:xlink="http://www.w3.org/1999/xlink" width="200" height="200"><defs><style type="text/css"></style></defs><path d="M864 1003.2H160c-43.2 0-70.4-25.6-70.4-70.4V89.6C91.2 48 116.8 20.8 160 20.8h211.2v350.4l70.4 140.8 70.4-140.8V20.8h352c38.4 0 70.4 33.6 70.4 70.4v843.2c-1.6 46.4-20.8 68.8-70.4 68.8z m-430.4-116.8c25.6 25.6 65.6-35.2 140.8-38.4 1.6 0 1.6 0 3.2-1.6-3.2 0-6.4 0-9.6-3.2l-99.2-97.6c-4.8-4.8-3.2-11.2 1.6-17.6-3.2 4.8-6.4 9.6-8 16-14.4 88-52.8 118.4-28.8 142.4z m54.4-177.6c-3.2 3.2-9.6 8-14.4 14.4 6.4-6.4 16-6.4 20.8-1.6l99.2 97.6c4.8 4.8 3.2 11.2 0 16 3.2-3.2 6.4-8 8-9.6L835.2 608c-6.4 3.2-12.8 3.2-16 0L720 508.8c-4.8-4.8-3.2-11.2 0-17.6L488 708.8z m348.8-214.4c-27.2-27.2-68.8-32-100.8-12.8 3.2 0 6.4 0 9.6 3.2l99.2 97.6c3.2 3.2 3.2 6.4 3.2 9.6 19.2-28.8 16-70.4-11.2-97.6z" fill="#2C2C2C" p-id="13828"></path></svg>