<?xml version="1.0" standalone="no"?><!DOCTYPE svg PUBLIC "-//W3C//DTD SVG 1.1//EN" "http://www.w3.org/Graphics/SVG/1.1/DTD/svg11.dtd"><svg t="1656745172822" class="icon" viewBox="0 0 1024 1024" version="1.1" xmlns="http://www.w3.org/2000/svg" p-id="8991" xmlns:xlink="http://www.w3.org/1999/xlink" width="200" height="200"><defs><style type="text/css"></style></defs><path d="M511 954.86c-119.3 0-231.4-46.1-315.8-129.9-84.3-83.8-130.8-195.3-130.8-313.8 0-118.5 46.5-230 130.8-313.8 84.3-83.8 196.5-129.9 315.8-129.9 119.3 0 231.5 46.1 315.8 129.9 174.1 173.1 174.1 454.6 0 627.6C742.5 908.66 630.3 954.86 511 954.86L511 954.86 511 954.86 511 954.86 511 954.86zM511.1 125.26c-103.8 0-201.3 40.1-274.6 113-73.4 72.9-113.8 169.8-113.8 272.9 0 103.1 40.4 200.1 113.7 272.9 73.3 72.8 170.9 113 274.6 113 103.8 0 201.4-40.2 274.8-113.1 151.4-150.4 151.4-395.3 0-545.8C712.4 165.36 614.8 125.26 511.1 125.26L511.1 125.26 511.1 125.26 511.1 125.26 511.1 125.26zM352.4 632.26c0 0 52.3 83.1 158.6 83.1 106.3 0 176-83.1 176-83.1s39.5-0.1 39.5 41.5c0 0-68.5 97-215.5 97s-194.8-97-194.8-97S314.7 632.26 352.4 632.26L352.4 632.26 352.4 632.26 352.4 632.26zM381.2 368.46c-30.1 0-54.7 24.3-54.7 54.3 0 30 24.6 54.3 54.7 54.3 30.3 0 54.7-24.3 54.7-54.3C435.9 392.76 411.5 368.46 381.2 368.46L381.2 368.46 381.2 368.46 381.2 368.46 381.2 368.46zM661.4 368.46c-30.2 0-54.7 24.3-54.7 54.3 0 30 24.5 54.3 54.7 54.3 30.2 0 54.7-24.3 54.7-54.3C716.1 392.76 691.7 368.46 661.4 368.46L661.4 368.46 661.4 368.46 661.4 368.46 661.4 368.46z" p-id="8992"></path></svg>