<?xml version="1.0" standalone="no"?><!DOCTYPE svg PUBLIC "-//W3C//DTD SVG 1.1//EN" "http://www.w3.org/Graphics/SVG/1.1/DTD/svg11.dtd"><svg t="1662646841850" class="icon" viewBox="0 0 1024 1024" version="1.1" xmlns="http://www.w3.org/2000/svg" p-id="2342" xmlns:xlink="http://www.w3.org/1999/xlink" width="200" height="200"><path d="M967.36 293.76A96 96 0 0 0 896 224a731.84 731.84 0 0 0-320 0 96 96 0 1 0 46.72 186.88 477.76 477.76 0 0 1 49.28-8l-179.2 180.8-108.8-109.76a80 80 0 0 0-113.28 0l-208 208a80 80 0 1 0 113.28 113.28l151.36-151.36 109.76 109.76a80 80 0 0 0 113.28 0L789.44 512a395.84 395.84 0 0 1-8.96 53.12 96 96 0 1 0 186.88 46.72 731.84 731.84 0 0 0 0-318.08z" fill="#231F20" p-id="2343"></path></svg>