<?xml version="1.0" encoding="UTF-8" standalone="no" ?>
<!DOCTYPE svg PUBLIC "-//W3C//DTD SVG 1.1//EN" "http://www.w3.org/Graphics/SVG/1.1/DTD/svg11.dtd">
<svg xmlns="http://www.w3.org/2000/svg" xmlns:xlink="http://www.w3.org/1999/xlink" version="1.1" width="25pt" height="25pt" viewBox="0 0 200 200" xml:space="preserve">
<desc>Created with Fabric.js 4.6.0</desc>
<defs>
</defs>
<g transform="matrix(0.2 0 0 0.2 100 100)" id="jV1SZ8R-aeVt2w8faeKe2"  >
<path style="stroke: none; stroke-width: 1; stroke-dasharray: none; stroke-linecap: butt; stroke-dashoffset: 0; stroke-linejoin: miter; stroke-miterlimit: 4; fill: rgb(0,0,0); fill-rule: nonzero; opacity: 1;" vector-effect="non-scaling-stroke"  transform=" translate(-511.99, -511.98)" d="M 512 929.426286 C 523.154286 929.426286 533.430857 928.146286 545.005714 927.286857 L 569.874286 974.4274290000001 C 574.573715 983.8628580000001 584.009143 989.0011430000001 595.565714 987.2822860000001 C 606.2811429999999 985.1428570000002 613.997714 977.4262860000001 615.277714 965.8514290000002 L 622.994286 913.9931430000001 C 644.0045719999999 908.4342860000002 664.996572 900.2788570000001 685.568 891.2822860000001 L 724.150857 926.0068570000001 C 732.288 933.7234280000001 742.564571 935.4240000000001 753.28 929.4262860000001 C 762.715429 924.2880000000001 766.573714 913.9931430000001 764.4342859999999 902.8571430000001 L 753.718857 851.419429 C 771.8816972132267 838.7384248663735 788.9418632462445 824.5471067928108 804.717714 808.9965709999999 L 852.717714 829.147429 C 863.433143 833.426286 873.289143 831.2868579999999 881.426286 821.430857 C 888.722286 813.7142859999999 889.563429 802.5782859999999 883.565714 793.1428569999999 L 855.7165709999999 748.562286 C 868.571428 730.5691429999999 878.866285 711.277715 888.7222859999999 690.724571 L 941.019429 693.2845709999999 C 952.1371429999999 693.7051419999999 961.5725719999999 687.7074279999999 965.430857 677.010286 C 968.850286 666.276572 965.430857 656 956.4342859999999 649.1428569999999 L 915.712 616.5759999999999 C 921.289143 596.0045709999999 925.586286 573.7142859999999 927.2868569999999 550.5645709999999 L 977.0057139999999 535.1497139999999 C 987.7211429999999 531.2914279999999 994.56 523.1359999999999 994.56 511.5611429999999 C 994.56 500.4251429999999 987.721143 492.2879999999999 977.0057139999999 488.4297139999999 L 927.2685709999998 472.57599999999985 C 925.5679999999999 449.42628599999983 921.2891419999999 427.99542899999983 915.7119999999999 407.00342899999987 L 956.4159999999998 373.99771399999986 C 965.4308569999998 367.57942799999984 968.8502859999999 357.72342799999984 965.4308569999998 347.00799999999987 C 961.5725709999998 336.29257099999984 952.1371429999998 330.2765709999999 941.0011429999998 330.71542899999986 L 888.7039999999998 332.85485699999987 C 878.8662859999998 312.28342799999984 868.5897139999998 292.99199999999985 855.7165709999998 274.9988569999999 L 883.5839999999998 230.43657099999987 C 889.5634289999998 221.42171399999987 888.7039999999998 210.28571399999987 881.4262859999998 202.56914299999988 C 873.2891429999997 192.7131429999999 863.4331429999997 190.1348569999999 852.7177139999998 194.85257099999987 L 804.7177139999998 214.14399999999986 C 788.7113508855338 198.9717249175479 771.6640975799959 184.93676398581465 753.7005709999996 172.14171399999978 L 764.4342859999997 121.14285699999986 C 766.5737149999997 109.56799999999987 762.7154289999997 99.29142799999987 753.2799999999997 94.13485699999987 C 742.5645709999998 88.57599999999987 732.2879999999998 89.43542799999987 724.1508569999997 97.99314299999988 L 685.5679999999998 131.85828599999988 C 665.232017303157 123.03728046320234 644.3271770361805 115.59046552210395 622.9942859999996 109.5679999999999 L 615.2777139999997 57.709713999999884 C 613.9977139999997 46.555427999999885 606.2811429999997 38.43657099999989 595.5657139999997 36.71771399999989 C 583.9908569999998 34.99885699999989 574.5737139999998 39.71657099999989 569.8559999999998 49.15199999999989 L 544.9874289999998 96.2925709999999 C 533.4308579999998 95.43314199999989 523.1359999999997 94.5737139999999 511.9999999999998 94.5737139999999 C 500.42514299999976 94.5737139999999 490.1485709999998 95.4331429999999 478.1348569999998 96.2925709999999 L 453.7234289999998 49.1337139999999 C 449.0057149999998 39.7165709999999 439.5702859999998 34.9988569999999 427.5748569999998 36.699428999999895 C 416.85942799999975 38.4365719999999 409.56342799999976 46.57371499999989 407.8628569999998 57.727999999999895 L 400.5668569999998 109.1474289999999 C 379.1359999999998 115.5657149999999 358.1439999999998 122.8617149999999 337.9931429999998 131.8582859999999 L 299.4285709999998 97.9931429999999 C 290.8525709999998 89.4354289999999 280.5759999999998 88.57599999999991 270.2811429999998 94.1531429999999 C 260.8639999999998 99.2731429999999 257.00571399999984 109.5679999999999 259.1268569999998 121.1428569999999 L 269.8605709999998 172.1599999999999 C 251.68094734985297 184.8381475426907 234.4860237141654 198.87282400441507 218.42285699999968 214.14400000000012 L 170.86171399999984 194.85257099999993 C 160.14628499999984 190.13485699999993 149.85142799999983 192.71314199999992 141.71428599999984 202.56914299999994 C 134.87151653294362 210.17232770561918 133.99377137020696 221.42546838756215 139.57485699999984 229.99771399999995 L 167.862857 275.017143 C 155.00799999999998 293.01028599999995 144.713143 312.32 134.857143 332.87314299999997 L 82.139429 330.73371399999996 C 70.98514300000001 330.31314299999997 61.56800000000001 336.31085699999994 58.148571000000004 347.008 C 54.710857000000004 357.741714 57.709714000000005 367.597714 66.706286 374.01599999999996 L 107.849143 407.021714 C 102.290286 428.013714 97.572572 449.444571 96.292571 472.59428599999995 L 46.555429 488.448 C 35.437715 491.86742899999996 29.421714999999995 500.022857 29.421713999999998 511.597714 C 29.421713999999998 523.154285 35.437714 531.309714 46.573713999999995 535.168 L 96.292571 551.021714 C 97.572571 573.732571 102.290285 596.0045709999999 107.867429 616.594286 L 66.724571 649.142857 C 57.709714 656 54.710857 666.2948570000001 58.130286 676.9920000000001 C 61.568 687.707429 71.003429 693.705143 82.139429 693.284571 L 134.857143 690.7245710000001 C 144.73142900000002 711.2777140000001 155.008 730.587428 167.424 748.5622860000001 L 139.995429 793.142857 C 133.577143 802.578286 134.436572 813.714286 141.71428600000002 821.4308570000001 C 149.85142900000002 831.286857 160.146286 833.426286 170.861714 829.1474290000001 L 218.42285700000002 808.9965710000001 C 234.29485700000004 824.8502850000001 251.86742800000002 838.9851420000001 269.86057100000005 851.4194290000002 L 259.1451430000001 902.8571430000002 C 257.00571400000007 914.0114290000001 260.8640000000001 924.2880000000001 270.2994290000001 929.4262860000002 C 280.99657200000007 935.4240000000002 291.2914290000001 933.7051430000002 299.4285710000001 926.0068570000002 L 337.5725710000001 891.2822860000002 C 358.1440000000001 900.2788570000002 379.1360000000001 908.4342860000003 400.5668570000001 913.9931430000003 L 407.8628570000001 965.8514290000003 C 409.5634280000001 977.4262860000002 416.8594280000001 985.1428580000003 427.57485700000007 987.2822860000002 C 439.57028600000007 989.0011430000002 449.00571400000007 983.8628570000002 453.72342900000007 974.4274290000002 L 478.13485700000007 927.2868570000002 C 489.7097140000001 928.1462860000001 500.44342800000004 929.4262860000001 512.0000000000001 929.4262860000001 z M 619.574857 484.571429 C 599.424 430.573715 560 401.005715 510.71999999999997 401.005714 C 503.424 401.005714 494.86628599999995 401.865143 481.152 404.845714 L 358.144 194.85257099999998 C 404.004571 172.141714 456.283429 159.707429 512 159.707429 C 698.861714 159.707429 845.4217140000001 301.568 858.715429 484.57142899999997 z M 164.004571 512 C 164.004571 392.850286 220.141714 287.85371399999997 308.86400000000003 224.43885699999998 L 432.71314300000006 435.712 C 409.56342900000004 459.721143 398.86628600000006 485.851429 398.86628600000006 513.718857 C 398.86628600000006 540.708571 409.14285700000005 565.577143 432.71314300000006 590.427429 L 305.86514300000005 797.8605709999999 C 219.282286 733.988571 164.004571 630.290286 164.004571 512 z M 459.282286 513.28 C 459.282286 484.150857 484.150857 461.42171399999995 511.579429 461.42171399999995 C 540.708572 461.42171399999995 564.717715 484.150857 564.717714 513.28 C 564.717714 541.988571 540.708571 565.577143 511.579429 565.577143 C 484.150858 565.577143 459.282286 541.988572 459.282286 513.28 z M 512 864.292571 C 455.003429 864.292571 401.865143 850.9988569999999 355.14514299999996 827.8674289999999 L 481.133714 621.714286 C 494.427428 625.152 503.44228499999997 625.993143 510.72 625.993143 C 560.420571 625.993143 599.8628570000001 595.5657140000001 619.5748570000001 540.288 L 858.697143 540.288 C 844.982857 722.413714 698.4045719999999 864.292571 511.981714 864.292571 z" stroke-linecap="round" />
</g>
</svg>