<?xml version="1.0" standalone="no"?><!DOCTYPE svg PUBLIC "-//W3C//DTD SVG 1.1//EN" "http://www.w3.org/Graphics/SVG/1.1/DTD/svg11.dtd"><svg t="1656318160169" class="icon" viewBox="0 0 1024 1024" version="1.1" xmlns="http://www.w3.org/2000/svg" p-id="5996" xmlns:xlink="http://www.w3.org/1999/xlink" width="200" height="200"><defs><style type="text/css"></style></defs><path d="M487.357815 894.708353l-2.819229-2.562299-92.008842-92.264772a39.110306 39.110306 0 0 1 52.385676-57.973148l2.819229 2.5623 25.373062 25.424048v-193.547077a39.040325 39.040325 0 0 1 77.912696-3.792963l0.153958 3.792963v193.547077l25.424048-25.424048a38.934354 38.934354 0 0 1 52.437662-2.5623l2.819229 2.5623a39.234272 39.234272 0 0 1 2.511313 52.591619l-2.511313 2.819229-92.059828 92.264772a38.934354 38.934354 0 0 1-52.437661 2.562299z m194.012949-122.558488a39.125302 39.125302 0 0 1 39.110306-39.217276c93.443449 0 169.203733-75.965228 169.203733-169.716593s-75.759285-169.711594-169.203733-169.711595a39.024329 39.024329 0 0 1-38.80239-34.804483l-0.306916-3.741977-0.050986-5.945374c-2.819229-91.649939-77.707752-164.437037-169.153747-164.437037-89.445542 0-163.055415 69.81391-168.844832 157.824845l-0.307915 5.99836-0.099973 6.561206a39.028328 39.028328 0 0 1-39.007334 38.54646c-93.443449 0-169.25372 75.965228-169.25372 169.716593s75.808271 169.709595 169.251721 169.709595a39.189284 39.189284 0 0 1 0 78.378568c-136.654633 0-247.372359-111.076627-247.37236-248.090163 0-122.766431 89.035654-224.76754 205.852713-244.55313l5.125598-0.871761 0.922748-5.689445c20.04252-116.357184 119.022455-202.419651 236.76226-205.751739l6.971094-0.050986c121.994642 0 223.738821 88.727739 243.78434 206.263599l0.871762 5.228571 5.125598 0.819775c114.559675 19.424689 202.367665 117.897762 205.75074 237.583036l0.099973 7.02208c0 137.013535-110.769711 248.091163-247.321373 248.091163a39.114305 39.114305 0 0 1-39.107307-39.162292z" p-id="5997"></path></svg>