<?xml version="1.0" standalone="no"?><!DOCTYPE svg PUBLIC "-//W3C//DTD SVG 1.1//EN" "http://www.w3.org/Graphics/SVG/1.1/DTD/svg11.dtd"><svg t="1646879792177" class="icon" viewBox="0 0 1024 1024" version="1.1" xmlns="http://www.w3.org/2000/svg" p-id="3785" xmlns:xlink="http://www.w3.org/1999/xlink" width="200" height="200"><defs><style type="text/css"></style></defs><path d="M561.6 246.4h-144V92c-1.6-13.6-9.6-24-23.2-29.6-5.6-2.4-10.4-3.2-15.2-3.2-10.4 0-20 4-28 12L114.4 307.2c-8 8-12 16.8-12 28s4 20 12 28l236 236c7.2 8 16.8 12 28 12 4.8 0 10.4-0.8 15.2-3.2 13.6-6.4 21.6-16 23.2-29.6v-160h144.8c104 0 188 84.8 188 188 0 104-84.8 188-188 188H280.8v171.2h280.8c198.4 0 359.2-161.6 359.2-359.2 0.8-198.4-160.8-360-359.2-360z" fill="" p-id="3786"></path></svg>