<?xml version="1.0" standalone="no"?><!DOCTYPE svg PUBLIC "-//W3C//DTD SVG 1.1//EN" "http://www.w3.org/Graphics/SVG/1.1/DTD/svg11.dtd"><svg t="1650899419475" class="icon" viewBox="0 0 1024 1024" version="1.1" xmlns="http://www.w3.org/2000/svg" p-id="30443" xmlns:xlink="http://www.w3.org/1999/xlink" width="200" height="200"><defs><style type="text/css"></style></defs><path d="M494.08 960a388.032 388.032 0 0 1-323.84-175.36 348.224 348.224 0 0 1-1.28-325.12 410.496 410.496 0 0 0 56.32-170.88 44.416 44.416 0 0 1 65.92-38.4C321.28 267.52 355.84 389.76 384 448c32-58.88 40.96-248.96 44.16-342.4a43.328 43.328 0 0 1 23.68-38.4 44.8 44.8 0 0 1 44.8 2.56 444.608 444.608 0 0 1 185.6 239.36A1750.272 1750.272 0 0 1 704 512a1275.648 1275.648 0 0 0 21.12-160 45.312 45.312 0 0 1 32.64-33.28 43.904 43.904 0 0 1 43.52 13.44c53.12 60.16 150.4 289.28 53.76 453.12C786.56 901.12 664.96 960 494.08 960z" fill="#FF3131" p-id="30444"></path></svg>