<?xml version="1.0" standalone="no"?><!DOCTYPE svg PUBLIC "-//W3C//DTD SVG 1.1//EN" "http://www.w3.org/Graphics/SVG/1.1/DTD/svg11.dtd"><svg t="1650632373843" class="icon" viewBox="0 0 1024 1024" version="1.1" xmlns="http://www.w3.org/2000/svg" p-id="6649" xmlns:xlink="http://www.w3.org/1999/xlink" width="200" height="200"><defs><style type="text/css"></style></defs><path d="M819.456 0a84.164923 84.164923 0 0 1 84.145231 84.164923v841.550769a84.164923 84.164923 0 0 1-84.145231 84.145231H202.299077A84.164923 84.164923 0 0 1 118.153846 925.735385V84.164923A84.164923 84.164923 0 0 1 202.318769 0h617.137231zM521.097846 433.545846c-60.061538 26.190769-97.476923 109.686154-88.398769 208.128 1.142154 7.483077 3.406769 29.892923-5.671385 33.634462-26.052923 9.984-33.988923-19.928615-38.518154-39.876923-2.264615-11.224615-5.671385-39.876923-2.264615-59.805539 1.122462-5.001846-5.671385-5.001846-7.936-1.260308-37.415385 47.36-51.003077 112.167385-39.660308 174.473847 0 1.240615 5.671385 23.689846 11.323077 39.876923 20.401231 52.342154 70.262154 107.185231 166.596923 95.960615 60.061538-6.222769 109.902769-48.600615 135.975385-105.924923 11.323077-27.411692 16.994462-58.564923 16.994462-88.477538-3.406769-127.113846-128.059077-168.251077-139.382154-250.486154-1.142154-5.001846-4.529231-7.483077-9.058462-6.242462zM763.352615 84.164923H258.422154c-29.361231 0-53.76 17.191385-55.965539 39.463385l-0.137846 3.190154v170.67323c-0.019692 22.331077 22.606769 40.881231 51.889231 42.555077l4.214154 0.118154h504.910769c29.361231 0 53.76-17.211077 55.965539-39.483077l0.157538-3.190154V126.818462c0-23.552-25.127385-42.653538-56.123077-42.653539zM330.023385 148.617846a29.538462 29.538462 0 0 1 29.538461 29.538462v59.076923a29.538462 29.538462 0 1 1-59.076923 0v-59.076923a29.538462 29.538462 0 0 1 29.538462-29.538462z m168.310153 0a29.538462 29.538462 0 0 1 29.538462 29.538462v59.076923a29.538462 29.538462 0 1 1-59.076923 0v-59.076923a29.538462 29.538462 0 0 1 29.538461-29.538462z m168.310154 0a29.538462 29.538462 0 0 1 29.538462 29.538462v59.076923a29.538462 29.538462 0 1 1-59.076923 0v-59.076923a29.538462 29.538462 0 0 1 29.538461-29.538462z" p-id="6650"></path></svg>