<?xml version="1.0" standalone="no"?><!DOCTYPE svg PUBLIC "-//W3C//DTD SVG 1.1//EN" "http://www.w3.org/Graphics/SVG/1.1/DTD/svg11.dtd"><svg t="1650898809329" class="icon" viewBox="0 0 1024 1024" version="1.1" xmlns="http://www.w3.org/2000/svg" p-id="11346" xmlns:xlink="http://www.w3.org/1999/xlink" width="200" height="200"><defs><style type="text/css"></style></defs><path d="M1 512c3.4-144.6 53.2-265.2 149.6-361.6S367.4 4.4 512 1c144.6 3.4 265.2 53.2 361.6 149.6s146.2 216.8 149.6 361.6c-0.6 92.6-23.4 177.8-68 255.6S848 907.6 768 955c-80.6 45.4-166 68-256 68s-175.4-22.6-256-68c-80-47.4-142.4-109.8-187-187.6S1.6 604.6 1 512zM154 666h137c6 0 18-1.4 36-4 13.4-2 23.4-4.6 30-8 10.6-6.6 19.2-15.2 25.6-25.6s9.6-22.2 9.6-35.6c0-16.6-4.6-30.4-13.6-41s-22.6-18.4-40.6-23c12-4 21-9.6 27-17 10-10.6 15-23.6 15-39 0-18-6.6-33.2-20-45.6s-32.4-18.6-57-18.6H154V666z m278 0h65v-196l50 196H606l50-196v196h65V409h-104l-40 156-41-156h-104V666z m342 0h80V409h-80V666z m-505-156c12 0 20.6-2.2 25.6-6.6s7.6-10.4 7.6-18-2.6-13.6-7.6-18-13.6-6.6-25.6-6.6H234V510h35z m6 100c13.4 0 22.8-2.4 28.6-7s8.6-10.8 8.6-18.6-2.8-14-8.6-19-15.2-7.6-28.6-7.6H234v52h41z" fill="#00c4b3" p-id="11347"></path></svg>