<?xml version="1.0" standalone="no"?><!DOCTYPE svg PUBLIC "-//W3C//DTD SVG 1.1//EN" "http://www.w3.org/Graphics/SVG/1.1/DTD/svg11.dtd"><svg t="1651214651709" class="icon" viewBox="0 0 1024 1024" version="1.1" xmlns="http://www.w3.org/2000/svg" p-id="2753" xmlns:xlink="http://www.w3.org/1999/xlink" width="200" height="200"><defs><style type="text/css"></style></defs><path d="M512 0C227.556 0 0 227.556 0 512s227.556 512 512 512 512-227.556 512-512S796.444 0 512 0z m295.822 460.8c-22.755 39.822-56.889 62.578-102.4 79.644-11.378 5.69-22.755 5.69-28.444 5.69-22.756 0-45.511-17.067-45.511-45.512 0-22.755 17.066-45.51 45.51-45.51 22.756-5.69 45.512-22.756 51.2-39.823 11.379-11.378 11.379-22.756 11.379-34.133 0-45.512-39.823-79.645-91.023-79.645-17.066 0-34.133 5.689-51.2 11.378-28.444 17.067-39.822 39.822-39.822 68.267v267.377c0 56.89-34.133 113.778-85.333 142.223-28.445 17.066-62.578 22.755-96.711 22.755-102.4 0-182.045-73.955-182.045-170.667 0-28.444 5.69-56.888 22.756-85.333 22.755-39.822 56.889-62.578 102.4-79.644 11.378-5.69 22.755-5.69 28.444-5.69 34.134 11.379 51.2 28.445 51.2 51.2 0 28.445-17.066 45.512-39.822 45.512-22.756 5.689-45.511 22.755-56.889 39.822-5.689 11.378-11.378 22.756-11.378 39.822 0 45.511 39.823 79.645 91.023 79.645 17.066 0 34.133-5.69 51.2-11.378 28.444-17.067 39.822-39.822 39.822-68.267V381.156c0-56.89 34.133-113.778 85.333-142.223 28.445-17.066 56.889-22.755 91.022-22.755 102.4 0 182.045 73.955 182.045 170.666 0 22.756-5.69 51.2-22.756 73.956z" p-id="2754"></path></svg>