<?xml version="1.0" standalone="no"?><!DOCTYPE svg PUBLIC "-//W3C//DTD SVG 1.1//EN" "http://www.w3.org/Graphics/SVG/1.1/DTD/svg11.dtd"><svg t="1667397151027" class="icon" viewBox="0 0 1024 1024" version="1.1" xmlns="http://www.w3.org/2000/svg" p-id="19620" xmlns:xlink="http://www.w3.org/1999/xlink" width="200" height="200"><path d="M277.9 742s167.9-294.1 465.3-465.3C575.7 577.8 277.9 742 277.9 742z" fill="#FFFFFF" p-id="19621"></path><path d="M743.1 742S575.2 447.9 277.8 276.7C445.3 577.8 743.1 742 743.1 742z" fill="#FFFFFF" p-id="19622"></path><path d="M513.2 959.9s126.1-26.8 233.5-142C841.2 716.5 868 483.6 868 151.3 643.9 182.5 513.2 64 513.2 64h-2.3s-130.7 118.5-354.8 87.3c0 332.3 26.8 565.3 121.4 666.7C384.9 933.2 511 960 511 960" fill="#EAB957" p-id="19623"></path><path d="M515.5 705.6m-51.9 0a51.9 51.9 0 1 0 103.8 0 51.9 51.9 0 1 0-103.8 0Z" fill="#FFFFFF" p-id="19624"></path><path d="M515.5 603.2s51.9-181.7 51.9-252.3-21-83.6-51.9-83.6-51.9 13-51.9 83.6 51.9 252.3 51.9 252.3z" fill="#FFFFFF" p-id="19625"></path></svg>