<?xml version="1.0" standalone="no"?><!DOCTYPE svg PUBLIC "-//W3C//DTD SVG 1.1//EN" "http://www.w3.org/Graphics/SVG/1.1/DTD/svg11.dtd"><svg t="1652239617725" class="icon" viewBox="0 0 1024 1024" version="1.1" xmlns="http://www.w3.org/2000/svg" p-id="2119" xmlns:xlink="http://www.w3.org/1999/xlink" width="200" height="200"><defs><style type="text/css"></style></defs><path d="M512 0c339.3024 0 512 172.6976 512 512s-172.6976 512-512 512S0 851.3024 0 512 172.6976 0 512 0z m20.0704 256h-9.0112c16.5376 53.76-3.8912 97.792-36.352 138.5984-16.7936-17.7152-17.7152-28.3136-5.9392-79.9744-31.3344 11.776-49.152 35.072-59.0848 63.488-9.6768 27.7504-15.2576 56.9344-23.7568 89.9072-9.6256-28.5184-7.0656-59.1872-37.1712-77.9776 10.6496 35.2768-4.9152 62.464-16.0256 91.136-9.728 24.9344-37.7856 94.5152-17.6128 145.3568 31.232 78.848 81.0496 121.088 158.1056 137.472 113.8688 24.2176 231.424-62.2592 235.9808-228.7104-9.0112-33.8432-15.5136-68.608-27.8016-101.2736-10.5472-28.2112-27.648-54.016-42.496-82.0224l-28.9792 85.504-9.2672-0.256-1.1264-18.4832c-4.1472-64.768-12.1344-127.6928-79.4624-162.7648z" fill="#FFCF2D" p-id="2120"></path></svg>