<?xml version="1.0" standalone="no"?><!DOCTYPE svg PUBLIC "-//W3C//DTD SVG 1.1//EN" "http://www.w3.org/Graphics/SVG/1.1/DTD/svg11.dtd"><svg t="1651638134643" class="icon" viewBox="0 0 1024 1024" version="1.1" xmlns="http://www.w3.org/2000/svg" p-id="5624" xmlns:xlink="http://www.w3.org/1999/xlink" width="200" height="200"><defs><style type="text/css"></style></defs><path d="M802.133333 102.4H222.208C156.330667 102.4 102.4 155.989333 102.4 221.866667v579.925333A120.149333 120.149333 0 0 0 222.208 921.6H802.133333c65.877333 0 119.466667-53.930667 119.466667-119.808V221.866667C921.6 155.989333 868.010667 102.4 802.133333 102.4z m-50.858666 665.258667h-296.96v11.605333c0 19.114667-15.36 34.133333-34.133334 34.133333s-34.133333-15.018667-34.133333-34.133333v-11.605333h-112.64c-19.114667 0-34.133333-15.36-34.133333-34.133334s15.018667-34.133333 34.133333-34.133333h112.64v-11.605333c0-18.773333 15.36-34.133333 34.133333-34.133334s34.133333 15.36 34.133334 34.133334v11.605333h296.96c18.773333 0 34.133333 15.36 34.133333 34.133333s-15.36 34.133333-34.133333 34.133334z m0-224.256h-123.904v11.605333c0 18.773333-15.36 34.133333-34.133334 34.133333s-34.133333-15.36-34.133333-34.133333v-11.605333H273.408c-19.114667 0-34.133333-15.36-34.133333-34.133334 0-19.114667 15.018667-34.133333 34.133333-34.133333h285.696v-11.946667c0-18.773333 15.36-34.133333 34.133333-34.133333s34.133333 15.36 34.133334 34.133333v11.946667h123.904c18.773333 0 34.133333 15.018667 34.133333 34.133333 0 18.773333-15.36 34.133333-34.133333 34.133334z m0-219.477334H405.162667v6.826667c0 18.773333-15.36 34.133333-34.133334 34.133333s-34.133333-15.36-34.133333-34.133333v-6.826667H273.408c-19.114667 0-34.133333-15.36-34.133333-34.133333s15.018667-34.133333 34.133333-34.133333h63.488V238.933333c0-18.773333 15.36-34.133333 34.133333-34.133333s34.133333 15.36 34.133334 34.133333v16.725334h346.112c18.773333 0 34.133333 15.36 34.133333 34.133333s-15.36 34.133333-34.133333 34.133333z" p-id="5625"></path></svg>