<?xml version="1.0" standalone="no"?><!DOCTYPE svg PUBLIC "-//W3C//DTD SVG 1.1//EN" "http://www.w3.org/Graphics/SVG/1.1/DTD/svg11.dtd"><svg t="1645176503567" class="icon" viewBox="0 0 1024 1024" version="1.1" xmlns="http://www.w3.org/2000/svg" p-id="26191" xmlns:xlink="http://www.w3.org/1999/xlink" width="200" height="200"><defs><style type="text/css"></style></defs><path d="M781.69 179.5H606.34a93 93 0 0 0-184.67 0H246.31A91.31 91.31 0 0 0 155 270.82v554.9A91.31 91.31 0 0 0 246.31 917h535.38A91.31 91.31 0 0 0 873 825.72v-554.9a91.31 91.31 0 0 0-91.31-91.32z m-267.69 0.93a16.74 16.74 0 1 1-16.74 16.74A16.74 16.74 0 0 1 514 180.43zM283.35 411.09h329.24a29.76 29.76 0 1 1 0 59.52H283.35a29.76 29.76 0 1 1 0-59.52z m458.51 229.72H283.35a29.76 29.76 0 1 1 0-59.52h458.51a29.76 29.76 0 0 1 0 59.52z" p-id="26192"></path></svg>