<?xml version="1.0" standalone="no"?><!DOCTYPE svg PUBLIC "-//W3C//DTD SVG 1.1//EN" "http://www.w3.org/Graphics/SVG/1.1/DTD/svg11.dtd"><svg t="1647783153030" class="icon" viewBox="0 0 1024 1024" version="1.1" xmlns="http://www.w3.org/2000/svg" p-id="4018" xmlns:xlink="http://www.w3.org/1999/xlink" width="200" height="200"><defs><style type="text/css"></style></defs><path d="M778.04 393.843c-2.414 0-4.814 0.063-7.204 0.163a9.16 9.16 0 0 0-1.937-0.21H143.875a9.142 9.142 0 0 0-9.141 9.141v293.339c0 88.309 64.451 162.291 148.636 177.241h-60.913c-17.673 0-32 14.327-32 32s14.327 32 32 32h482.48c17.673 0 32-14.327 32-32s-14.327-32-32-32h-75.534c71.325-12.667 128.474-67.71 144.273-137.937 1.45 0.036 2.904 0.055 4.363 0.055 94.232 0 170.896-76.663 170.896-170.896S872.273 393.843 778.04 393.843z m0 277.791V457.843c58.942 0 106.896 47.953 106.896 106.896 0 58.942-47.953 106.895-106.896 106.895zM277.685 254.186c16.163 29.341 18.647 33.839 3.327 69.605-6.368 14.849 0.514 32.04 15.349 38.393a29.123 29.123 0 0 0 11.508 2.384c11.351-0.014 22.145-6.654 26.885-17.733 25.358-59.139 14.863-83.283-5.84-120.877-3.569-6.468-7.567-13.707-11.794-22.174-14.492-28.984 26.057-65.679 26.8-66.335 12.179-10.523 13.564-28.927 3.084-41.163-10.509-12.25-28.998-13.678-41.235-3.17-28.427 24.372-69.062 80.628-40.963 136.825 4.626 9.253 8.981 17.163 12.879 24.245zM431.201 254.186c16.163 29.341 18.647 33.839 3.327 69.605-6.368 14.849 0.514 32.04 15.349 38.393a29.123 29.123 0 0 0 11.508 2.384c11.351-0.014 22.145-6.654 26.885-17.733 25.358-59.139 14.863-83.283-5.84-120.877-3.569-6.468-7.567-13.707-11.794-22.174-14.492-28.984 26.057-65.679 26.8-66.335 12.179-10.523 13.564-28.927 3.084-41.163-10.509-12.25-28.998-13.678-41.235-3.17-28.427 24.372-69.062 80.628-40.963 136.825 4.626 9.253 8.981 17.163 12.879 24.245zM584.717 254.186c16.163 29.341 18.647 33.839 3.327 69.605-6.368 14.849 0.514 32.04 15.349 38.393a29.123 29.123 0 0 0 11.508 2.384c11.351-0.014 22.145-6.654 26.885-17.733 25.358-59.139 14.863-83.283-5.84-120.877-3.57-6.468-7.567-13.707-11.794-22.174-14.492-28.984 26.057-65.679 26.8-66.335 12.179-10.523 13.564-28.927 3.084-41.163-10.509-12.25-28.998-13.678-41.235-3.17-28.427 24.372-69.062 80.628-40.963 136.825 4.627 9.253 8.981 17.163 12.879 24.245z" p-id="4019"></path></svg>