<?xml version="1.0" standalone="no"?><!DOCTYPE svg PUBLIC "-//W3C//DTD SVG 1.1//EN" "http://www.w3.org/Graphics/SVG/1.1/DTD/svg11.dtd"><svg t="1650898895076" class="icon" viewBox="0 0 1024 1024" version="1.1" xmlns="http://www.w3.org/2000/svg" p-id="15041" xmlns:xlink="http://www.w3.org/1999/xlink" width="200" height="200"><defs><style type="text/css"></style></defs><path d="M512 512m-512 0a512 512 0 1 0 1024 0 512 512 0 1 0-1024 0Z" fill="#FFBF00" p-id="15042"></path><path d="M769.886316 417.387789V458.105263L673.684211 377.195789 769.886316 296.421053v39.545263H835.368421v81.421473zM512 464.842105c0 11.156211 3.018105 20.210526 6.736842 20.210527s6.736842-9.054316 6.736842-20.210527-3.018105-20.210526-6.736842-20.210526-6.736842 9.054316-6.736842 20.210526zM267.533474 417.387789H202.105263v-81.421473h65.428211V296.421053L363.789474 377.195789 267.533474 458.105263z" fill="#FFFFFF" p-id="15043"></path><path d="M356.109474 754.526316c-10.765474-40.286316-18.755368-95.380211-18.755369-169.566316 0-16.074105 2.721684-31.420632 7.356632-46.618947l165.712842 142.982736V754.526316h26.745263v-75.331369l168.421053-142.780631c4.998737 15.845053 8.070737 31.838316 8.070737 48.545684 0 74.186105-8.057263 129.199158-18.836211 169.566316h28.833684C733.978947 708.621474 741.052632 649.202526 741.052632 576.997053 741.052632 486.871579 659.159579 400.033684 656.869053 269.473684H631.781053c0.565895 110.228211 47.508211 192.741053 69.901473 255.353263h-352.471579C371.738947 462.012632 418.896842 379.917474 419.112421 269.473684h-25.249684C392.286316 400.384 309.894737 486.669474 309.894737 576.997053c0 72.205474 7.141053 131.624421 17.340631 177.529263h28.887579z" fill="#FFFFFF" p-id="15044"></path></svg>