<?xml version="1.0" standalone="no"?><!DOCTYPE svg PUBLIC "-//W3C//DTD SVG 1.1//EN" "http://www.w3.org/Graphics/SVG/1.1/DTD/svg11.dtd"><svg t="1669975904866" class="icon" viewBox="0 0 1024 1024" version="1.1" xmlns="http://www.w3.org/2000/svg" p-id="5154" xmlns:xlink="http://www.w3.org/1999/xlink" width="200" height="200"><path d="M746.682 384.002c0 200.308-162.372 362.68-362.678 362.68-200.278 0-362.648-162.372-362.648-362.68S183.728 21.324 384.004 21.324c200.306 0 362.678 162.37 362.678 362.678z" fill="#FFCE54" p-id="5155"></path><path d="M384.002 405.314c-11.75 0-21.312-9.532-21.312-21.312V128.008c0-11.812 9.562-21.342 21.312-21.342a21.31 21.31 0 0 1 21.342 21.342v255.994c0.002 11.782-9.53 21.312-21.342 21.312z" fill="#434A54" p-id="5156"></path><path d="M565.03 586.374c-5.468 0-10.906-2.124-15.094-6.25l-180.996-181.058c-8.344-8.312-8.344-21.844 0-30.156 8.312-8.344 21.812-8.344 30.156 0l181.028 181.026c8.312 8.312 8.312 21.812 0 30.188-4.188 4.124-9.626 6.25-15.094 6.25zM384.002 64.01c-11.75 0-21.312-9.562-21.312-21.344V21.324c0-11.782 9.562-21.312 21.312-21.312 11.812 0 21.342 9.53 21.342 21.312v21.342a21.33 21.33 0 0 1-21.342 21.344zM384.002 767.994c-11.75 0-21.312-9.562-21.312-21.312v-21.374c0-11.75 9.562-21.312 21.312-21.312 11.812 0 21.342 9.562 21.342 21.312v21.374c0.002 11.75-9.53 21.312-21.342 21.312zM213.382 109.728c-7.376 0-14.562-3.812-18.5-10.656l-10.688-18.5c-5.876-10.188-2.376-23.25 7.812-29.124 10.218-5.906 23.25-2.406 29.156 7.812l10.656 18.468c5.906 10.188 2.406 23.25-7.812 29.124a20.814 20.814 0 0 1-10.624 2.876zM565.374 719.434a21.398 21.398 0 0 1-18.5-10.688l-10.688-18.5c-5.876-10.188-2.376-23.25 7.812-29.124 10.218-5.876 23.25-2.376 29.156 7.812l10.656 18.5c5.906 10.188 2.406 23.25-7.812 29.124a21.132 21.132 0 0 1-10.624 2.876zM88.384 234.662c-3.592 0-7.25-0.906-10.624-2.876l-18.468-10.656c-10.218-5.876-13.718-18.938-7.812-29.124 5.906-10.218 18.938-13.718 29.156-7.812l18.436 10.656c10.218 5.906 13.718 18.936 7.812 29.156-3.938 6.844-11.126 10.656-18.5 10.656zM698.056 586.686c-3.624 0-7.282-0.938-10.624-2.876l-18.498-10.688c-10.188-5.876-13.688-18.938-7.812-29.124 5.906-10.216 18.968-13.716 29.154-7.81l18.468 10.686c10.218 5.876 13.718 18.938 7.812 29.124-3.936 6.876-11.124 10.688-18.5 10.688zM42.698 405.314H21.354c-11.782 0-21.342-9.532-21.342-21.312 0-11.812 9.562-21.342 21.342-21.342h21.344c11.78 0 21.312 9.53 21.312 21.342a21.3 21.3 0 0 1-21.312 21.312zM746.682 405.314h-21.344c-11.782 0-21.344-9.532-21.344-21.312 0-11.812 9.562-21.342 21.344-21.342h21.344c11.782 0 21.312 9.53 21.312 21.342a21.3 21.3 0 0 1-21.312 21.312zM69.978 586.686a21.3 21.3 0 0 1-18.5-10.688c-5.906-10.188-2.406-23.25 7.812-29.124l18.468-10.686c10.186-5.906 23.25-2.406 29.124 7.81 5.906 10.188 2.406 23.25-7.812 29.124l-18.436 10.688a21.412 21.412 0 0 1-10.656 2.876zM679.622 234.662a21.402 21.402 0 0 1-18.5-10.656c-5.876-10.218-2.376-23.25 7.812-29.156l18.498-10.656c10.188-5.906 23.25-2.406 29.124 7.812 5.906 10.186 2.406 23.25-7.812 29.124l-18.468 10.656a21.24 21.24 0 0 1-10.654 2.876zM202.664 719.434c-3.594 0-7.282-0.938-10.656-2.876-10.188-5.876-13.688-18.938-7.782-29.124l10.656-18.5c5.876-10.188 18.938-13.688 29.124-7.812 10.218 5.876 13.718 18.938 7.812 29.124l-10.656 18.5a21.434 21.434 0 0 1-18.498 10.688zM554.654 109.728c-3.594 0-7.282-0.938-10.656-2.876-10.188-5.876-13.688-18.936-7.812-29.124l10.688-18.468c5.876-10.218 18.938-13.718 29.124-7.812 10.218 5.876 13.718 18.938 7.812 29.124l-10.656 18.5a21.402 21.402 0 0 1-18.5 10.656z" fill="#434A54" p-id="5157"></path><path d="M384.002 767.994c-102.56 0-198.996-39.938-271.494-112.498C39.98 582.998 0.012 486.562 0.012 384.002c0-102.59 39.968-198.996 112.498-271.524C185.006 39.948 281.442 0.012 384.002 0.012c102.59 0 198.996 39.936 271.556 112.466 72.498 72.53 112.436 168.934 112.436 271.524 0 102.56-39.938 198.996-112.436 271.494-72.56 72.56-168.964 112.498-271.556 112.498z m0-725.328c-91.154 0-176.872 35.5-241.338 99.966-64.466 64.466-99.966 150.184-99.966 241.37 0 91.154 35.5 176.872 99.966 241.37 64.468 64.438 150.184 99.938 241.338 99.938 91.184 0 176.902-35.5 241.37-99.938 64.464-64.498 99.964-150.214 99.964-241.37 0-91.186-35.5-176.902-99.964-241.37-64.468-64.466-150.184-99.966-241.37-99.966z" fill="#F6BB42" p-id="5158"></path><path d="M1002.676 746.682H234.694c-11.782 0-21.342 9.562-21.342 21.312v85.31c0 11.812 9.562 21.376 21.342 21.376h767.982c11.782 0 21.312-9.562 21.312-21.376v-85.31c0-11.75-9.53-21.312-21.312-21.312z" fill="#656D78" p-id="5159"></path><path d="M362.69 661.308c-35.312 0-63.998 28.75-63.998 64v170.684c0 35.31 28.686 63.996 63.998 63.996 35.28 0 64-28.686 64-63.996v-170.684c0-35.25-28.72-64-64-64z" fill="#DA4453" p-id="5160"></path><path d="M469.344 597.31c-35.282 0-64 28.748-64 63.998v298.68c0 35.312 28.718 64 64 64 35.28 0 63.998-28.688 63.998-64v-298.68c0-35.25-28.718-63.998-63.998-63.998z" fill="#ED5564" p-id="5161"></path><path d="M874.678 661.308c-35.31 0-63.996 28.75-63.996 64v170.684c0 35.31 28.686 63.996 63.996 63.996 35.282 0 64-28.686 64-63.996v-170.684c0-35.25-28.72-64-64-64z" fill="#DA4453" p-id="5162"></path><path d="M767.994 597.31c-35.282 0-64 28.748-64 63.998v298.68c0 35.312 28.718 64 64 64 35.312 0 63.998-28.688 63.998-64v-298.68c0-35.25-28.686-63.998-63.998-63.998z" fill="#ED5564" p-id="5163"></path><path d="M1023.988 789.304a21.404 21.404 0 0 0-15.062 6.25c-8.344 8.376-8.344 21.876 0 30.188a21.144 21.144 0 0 0 15.062 6.25v-42.688zM213.35 789.304v42.688c5.468 0 10.906-2.062 15.092-6.25 8.312-8.312 8.312-21.812 0-30.188-4.186-4.124-9.624-6.25-15.092-6.25z" fill="#434A54" p-id="5164"></path></svg>