<?xml version="1.0" standalone="no"?><!DOCTYPE svg PUBLIC "-//W3C//DTD SVG 1.1//EN" "http://www.w3.org/Graphics/SVG/1.1/DTD/svg11.dtd"><svg t="1650898694116" class="icon" viewBox="0 0 1024 1024" version="1.1" xmlns="http://www.w3.org/2000/svg" p-id="9853" xmlns:xlink="http://www.w3.org/1999/xlink" width="200" height="200"><defs><style type="text/css"></style></defs><path d="M512 440a48 48 0 1 0-48-48 48 48 0 0 0 48 48zM510.8 510.56H468.8l-31.92 57.36h-11.52V510.56h-34.08V656h34.08v-61.44h15.6L473.6 656h41.04l-48.96-80.16 45.12-65.28zM582.8 608.96h22.8v18l-8.4 3.36-14.64 1.68a24.688 24.688 0 0 1-19.92-9.6 40.288 40.288 0 0 1-6.96-24.24V568.16a36.912 36.912 0 0 1 7.2-23.76 22.464 22.464 0 0 1 18.96-9.12 22.96 22.96 0 0 1 17.52 5.76 30.384 30.384 0 0 1 7.44 17.28h31.68l0.24-0.72a54.56 54.56 0 0 0-15.84-36 60.544 60.544 0 0 0-42.24-12.96 56.96 56.96 0 0 0-42.24 16.56 57.888 57.888 0 0 0-16.56 42.96v30.24a57.84 57.84 0 0 0 17.04 43.2 59.184 59.184 0 0 0 43.68 16.56 81.6 81.6 0 0 0 35.52-6.72 60.864 60.864 0 0 0 21.36-15.6v-53.52h-56.64z" fill="#F29318" p-id="9854"></path><path d="M512 0a512 512 0 1 0 512 512A512 512 0 0 0 512 0z m225.936 713.936A48 48 0 0 1 704 728H320a48 48 0 0 1-48-48c0-5.28 0.96-10.32 49.2-202.56A48.112 48.112 0 0 1 368 440h60.96a93.36 93.36 0 0 1-12.96-48 96 96 0 1 1 192 0 93.36 93.36 0 0 1-12.96 48H656a48.112 48.112 0 0 1 46.8 37.44C751.04 669.68 752 674.72 752 680a48 48 0 0 1-14.064 33.936z" fill="#F29318" p-id="9855"></path></svg>