<?xml version="1.0" standalone="no"?><!DOCTYPE svg PUBLIC "-//W3C//DTD SVG 1.1//EN" "http://www.w3.org/Graphics/SVG/1.1/DTD/svg11.dtd"><svg t="1650532691263" class="icon" viewBox="0 0 1075 1024" version="1.1" xmlns="http://www.w3.org/2000/svg" p-id="14382" xmlns:xlink="http://www.w3.org/1999/xlink" width="209.9609375" height="200"><defs><style type="text/css"></style></defs><path d="M0 512c0 282.624 229.376 512 512 512s512-229.376 512-512S794.624 0 512 0 0 229.376 0 512z" fill="#E59898" p-id="14383"></path><path d="M1013.76 408.576C965.632 175.104 759.808 0 512 0 229.376 0 0 229.376 0 512c0 123.904 44.032 236.544 116.736 324.608 87.04 48.128 186.368 74.752 292.864 74.752 301.056 0 550.912-217.088 604.16-502.784z" fill="#F7A9A9" p-id="14384"></path><path d="M1074.176 243.712l-18.432-70.656c-3.072-13.312-16.384-20.48-29.696-17.408l-84.992 22.528 23.552-87.04c3.072-13.312-4.096-26.624-17.408-29.696l-70.656-19.456c-13.312-3.072-26.624 4.096-29.696 17.408L789.504 271.36c33.792 36.864 84.992 51.2 133.12 37.888l134.144-35.84c13.312-3.072 21.504-16.384 17.408-29.696z" fill="#FF5450" p-id="14385"></path><path d="M843.776 410.624c11.264-6.144 24.576-1.024 29.696 10.24 28.672 71.68 0 155.648-68.608 195.584s-155.648 22.528-203.776-38.912c-8.192-10.24-5.12-24.576 5.12-30.72l237.568-136.192z m-663.552 0c-11.264-6.144-24.576-1.024-29.696 10.24-28.672 71.68 0 155.648 68.608 195.584s155.648 22.528 203.776-38.912c8.192-10.24 5.12-24.576-5.12-30.72L180.224 410.624z" fill="#FFFFFF" p-id="14386"></path><path d="M512 187.392c-129.024 0-251.904-11.264-365.568-32.768-40.96 40.96-73.728 89.088-98.304 142.336 139.264 34.816 296.96 54.272 463.872 54.272s324.608-19.456 463.872-54.272c-24.576-53.248-58.368-101.376-98.304-142.336-113.664 20.48-236.544 32.768-365.568 32.768z" fill="#FF5450" p-id="14387"></path><path d="M629.76 820.224c-6.144 0-12.288-2.048-17.408-6.144-104.448-95.232-206.848-4.096-210.944 0-10.24 9.216-26.624 9.216-35.84-2.048-9.216-10.24-9.216-26.624 1.024-35.84 48.128-44.032 167.936-101.376 280.576 0 10.24 9.216 11.264 25.6 2.048 35.84-5.12 5.12-12.288 8.192-19.456 8.192z" fill="#FFFFFF" p-id="14388"></path></svg>