<?xml version="1.0" standalone="no"?><!DOCTYPE svg PUBLIC "-//W3C//DTD SVG 1.1//EN" "http://www.w3.org/Graphics/SVG/1.1/DTD/svg11.dtd"><svg t="1652092745219" class="icon" viewBox="0 0 1024 1024" version="1.1" xmlns="http://www.w3.org/2000/svg" p-id="22715" xmlns:xlink="http://www.w3.org/1999/xlink" width="200" height="200"><defs><style type="text/css"></style></defs><path d="M51.2 389.12l159.0272-35.33824a122.86976 122.86976 0 0 0 46.16192-20.97152l184.576-135.7824a122.88 122.88 0 0 1 99.75808-20.89984l140.1856 31.50848a122.88 122.88 0 0 0 101.23264-22.00576L972.8 40.96v727.04H51.2V389.12z" fill="#B5F5EC" p-id="22716"></path><path d="M51.2 583.68l159.0272-35.33824a122.86976 122.86976 0 0 0 46.16192-20.97152l184.576-135.7824a122.88 122.88 0 0 1 99.75808-20.89984l140.1856 31.50848a122.88 122.88 0 0 0 101.23264-22.00576L972.8 235.52v665.6H51.2V583.68z" fill="#08979C" p-id="22717"></path><path d="M51.2 849.92l151.3984-33.6384a122.88 122.88 0 0 0 57.4976-30.42304L438.5792 618.0864a122.88 122.88 0 0 1 111.104-30.35136l131.23584 29.4912a122.88 122.88 0 0 0 101.2224-21.99552L972.8 450.56v460.8a81.92 81.92 0 0 1-81.92 81.92H133.12a81.92 81.92 0 0 1-81.92-81.92v-61.44z" fill="#36CFC9" p-id="22718"></path></svg>