<?xml version="1.0" standalone="no"?><!DOCTYPE svg PUBLIC "-//W3C//DTD SVG 1.1//EN" "http://www.w3.org/Graphics/SVG/1.1/DTD/svg11.dtd"><svg t="1659440419174" class="icon" viewBox="0 0 1024 1024" version="1.1" xmlns="http://www.w3.org/2000/svg" p-id="2227" xmlns:xlink="http://www.w3.org/1999/xlink" width="200" height="200"><defs><style type="text/css"></style></defs><path d="M920.305313 126.35171 144.625912 126.35171c-33.751708 0-61.113893 27.361161-61.113893 61.113893l0 546.979676c0 33.751708 27.361161 61.113893 61.113893 61.113893l159.995971 0c4.067642 0 7.237845 3.524267 6.809079 7.569396l8.232498 114.813932c-0.423649 3.491521 1.757017 5.550413 4.244674 3.062755l129.002073-118.771057c4.273327-4.273327 2.90619-6.674003 8.948813-6.674003l458.446293 0c33.751708 0 61.113893-27.361161 61.113893-61.113893L981.419206 187.464579C981.419206 153.712871 954.058045 126.35171 920.305313 126.35171zM280.359292 534.87601c-44.843324 0-81.196277-36.352953-81.196277-81.196277 0-44.843324 36.352953-81.196277 81.196277-81.196277 44.843324 0 81.196277 36.352953 81.196277 81.196277C361.555569 498.523057 325.202617 534.87601 280.359292 534.87601zM540.279067 534.87601c-44.843324 0-81.196277-36.352953-81.196277-81.196277 0-44.843324 36.352953-81.196277 81.196277-81.196277 44.843324 0 81.196277 36.352953 81.196277 81.196277C621.475344 498.523057 585.122391 534.87601 540.279067 534.87601zM785.872554 534.87601c-44.843324 0-81.196277-36.352953-81.196277-81.196277 0-44.843324 36.352953-81.196277 81.196277-81.196277 44.843324 0 81.196277 36.352953 81.196277 81.196277C867.068831 498.523057 830.715879 534.87601 785.872554 534.87601z" p-id="2228"></path></svg>