<?xml version="1.0" standalone="no"?><!DOCTYPE svg PUBLIC "-//W3C//DTD SVG 1.1//EN" "http://www.w3.org/Graphics/SVG/1.1/DTD/svg11.dtd"><svg t="1646838822544" class="icon" viewBox="0 0 1024 1024" version="1.1" xmlns="http://www.w3.org/2000/svg" p-id="9999" xmlns:xlink="http://www.w3.org/1999/xlink" width="200" height="200"><defs><style type="text/css"></style></defs><path d="M227.264 513.472c0-125.152 84.672-231.232 200.544-265.216v90.56l239.648-169.536L427.808 0v92.896C226.88 130.048 74.08 304.352 74.08 513.472c0 147.392 75.104 282.464 201.12 361.536l82.016-127.616c-81.344-51.2-129.952-138.592-129.952-233.952z m722.656-3.072c0-147.296-75.104-282.464-201.056-361.536L666.72 276.48c81.408 51.328 130.08 138.72 130.08 233.952 0 125.28-84.8 231.232-200.544 265.216v-90.432l-239.84 169.28 239.84 169.536v-93.12c200.928-37.024 353.664-211.2 353.664-420.448z" p-id="10000"></path></svg>