<?xml version="1.0" standalone="no"?><!DOCTYPE svg PUBLIC "-//W3C//DTD SVG 1.1//EN" "http://www.w3.org/Graphics/SVG/1.1/DTD/svg11.dtd"><svg t="1654263591872" class="icon" viewBox="0 0 1024 1024" version="1.1" xmlns="http://www.w3.org/2000/svg" p-id="9903" xmlns:xlink="http://www.w3.org/1999/xlink" width="200" height="200"><defs><style type="text/css"></style></defs><path d="M512 393.846154c-86.646154 0-157.538462 70.892308-157.538462 157.538461s70.892308 157.538462 157.538462 157.538462 157.538462-70.892308 157.538462-157.538462-70.892308-157.538462-157.538462-157.538461z m393.846154-118.153846h-102.4c-27.569231 0-51.2-13.784615-66.953846-35.446154l-45.292308-68.923077C677.415385 137.846154 643.938462 118.153846 608.492308 118.153846h-192.984616c-35.446154 0-68.923077 19.692308-84.676923 53.169231l-45.292307 68.923077c-13.784615 21.661538-39.384615 35.446154-66.953847 35.446154H118.153846c-43.323077 0-78.769231 35.446154-78.769231 78.76923v472.615385c0 43.323077 35.446154 78.769231 78.769231 78.769231h787.692308c43.323077 0 78.769231-35.446154 78.769231-78.769231V354.461538c0-43.323077-35.446154-78.769231-78.769231-78.76923zM512 787.692308c-129.969231 0-236.307692-106.338462-236.307692-236.307693s106.338462-236.307692 236.307692-236.307692 236.307692 106.338462 236.307692 236.307692-106.338462 236.307692-236.307692 236.307693z" p-id="9904"></path></svg>