<?xml version="1.0" standalone="no"?><!DOCTYPE svg PUBLIC "-//W3C//DTD SVG 1.1//EN" "http://www.w3.org/Graphics/SVG/1.1/DTD/svg11.dtd"><svg t="1656745167873" class="icon" viewBox="0 0 1024 1024" version="1.1" xmlns="http://www.w3.org/2000/svg" p-id="8850" xmlns:xlink="http://www.w3.org/1999/xlink" width="200" height="200"><defs><style type="text/css"></style></defs><path d="M511.488 955.904c-119.296 0-231.424-46.08-315.904-130.048s-130.56-195.072-130.56-313.856c0-118.784 46.592-229.888 131.072-313.856s196.608-130.048 315.904-130.048 231.424 46.08 315.904 130.048c174.08 173.056 174.08 454.656 0 627.712C742.912 909.824 630.784 955.904 511.488 955.904L511.488 955.904 511.488 955.904 511.488 955.904 511.488 955.904zM511.488 126.464c-103.936 0-201.216 39.936-274.432 113.152-73.216 72.704-113.664 169.984-113.664 272.896 0 102.912 40.448 200.192 113.664 272.896 73.216 72.704 171.008 113.152 274.432 113.152 103.936 0 201.216-40.448 274.944-113.152 151.552-150.528 151.552-395.264 0-545.792C712.704 166.4 615.424 126.464 511.488 126.464L511.488 126.464 511.488 126.464 511.488 126.464 511.488 126.464zM381.952 369.664c-30.208 0-54.784 24.576-54.784 54.272 0 30.208 24.576 54.272 54.784 54.272 30.208 0 54.784-24.576 54.784-54.272C436.224 393.728 412.16 369.664 381.952 369.664L381.952 369.664 381.952 369.664 381.952 369.664 381.952 369.664zM662.016 369.664c-30.208 0-54.784 24.576-54.784 54.272 0 30.208 24.576 54.272 54.784 54.272 30.208 0 54.784-24.576 54.784-54.272C716.8 393.728 692.224 369.664 662.016 369.664L662.016 369.664 662.016 369.664 662.016 369.664 662.016 369.664z" p-id="8851"></path><path d="M657.408 729.088l-281.088 0c-14.848 0-26.624-11.776-26.624-26.624l0 0c0-14.848 11.776-26.624 26.624-26.624l281.088 0c14.848 0 26.624 11.776 26.624 26.624l0 0C684.032 717.312 671.744 729.088 657.408 729.088z" p-id="8852"></path></svg>