<?xml version="1.0" standalone="no"?><!DOCTYPE svg PUBLIC "-//W3C//DTD SVG 1.1//EN" "http://www.w3.org/Graphics/SVG/1.1/DTD/svg11.dtd"><svg t="1669975860978" class="icon" viewBox="0 0 1024 1024" version="1.1" xmlns="http://www.w3.org/2000/svg" p-id="2804" xmlns:xlink="http://www.w3.org/1999/xlink" width="200" height="200"><path d="M512 512m-512 0a512 512 0 1 0 1024 0 512 512 0 1 0-1024 0Z" fill="#556080" p-id="2805"></path><path d="M1.271172 546.286345a514.048 514.048 0 0 0 4.096 39.424l0.388414 3.124965c1.677241 11.087448 3.778207 22.016 6.144 32.838621 0.564966 2.577655 1.182897 5.15531 1.783173 7.732966 2.242207 9.569103 4.731586 19.032276 7.503448 28.389517 0.406069 1.359448 0.759172 2.754207 1.165241 4.113655 3.266207 10.646069 6.885517 21.115586 10.822621 31.461517 0.741517 1.977379 1.553655 3.937103 2.330483 5.896828 3.636966 9.233655 7.503448 18.343724 11.652414 27.294896 0.582621 1.271172 1.129931 2.542345 1.730206 3.813518 4.819862 10.20469 9.975172 20.215172 15.448276 30.031448l1.924414 3.354483c5.172966 9.127724 10.610759 18.096552 16.331035 26.871172l1.783172 2.789517c6.391172 9.69269 13.082483 19.173517 20.109241 28.389518l0.335449 0.423724c6.956138 9.092414 14.212414 17.937655 21.751172 26.535724l1.412414 1.641931a515.354483 515.354483 0 0 0 108.349793 92.919172l0.194207 0.123586A508.257103 508.257103 0 0 0 300.137931 978.061241V829.793103c95.638069 80.913655 300.137931 0 300.137931 0 144.189793 0 176.551724-88.275862 176.551724-88.275862 41.807448-38.43531 53.177379-95.390897 52.983173-146.714482-0.176552-51.782621-16.030897-101.817379-40.200828-147.614897C775.185655 419.87531 759.172414 369.875862 759.172414 282.482759c0-158.896552-211.862069-141.241379-211.862069-141.24138-102.258759-34.215724-143.342345-10.063448-164.969931 18.484966-20.886069 27.577379-12.146759 69.15531 14.848 96.344276 40.395034 40.642207 58.262069 106.142897 114.811586 79.377655 36.563862-17.302069 105.931034-35.310345 105.931034-35.310345v70.62069c-18.432 18.432-27.471448 44.844138-31.796965 68.502069-2.736552 14.971586-15.977931 23.799172-29.748966 23.516689A140.747034 140.747034 0 0 0 459.034483 423.724138c-5.932138 0-11.758345 0.47669-17.513931 1.200552a111.06869 111.06869 0 0 0-48.163311 15.042207 141.312 141.312 0 0 0-25.547034 17.249103 29.448828 29.448828 0 0 1-34.392276-8.386207C266.681379 367.015724 200.615724 354.568828 158.896552 353.103448c-0.441379-0.017655-10.981517-0.03531-22.810483-0.03531A30.190345 30.190345 0 0 1 105.931034 322.895448v-116.012138c0-2.08331-2.736552-3.019034-3.990068-1.341793A509.316414 509.316414 0 0 0 2.718897 459.034483h0.353103A509.422345 509.422345 0 0 0 0 512c0 11.528828 0.512 22.951724 1.271172 34.286345z" fill="#FDD7AD" p-id="2806"></path><path d="M589.929931 529.655172a17.619862 17.619862 0 0 1-16.366345-11.016827C554.53131 471.710897 509.581241 441.37931 459.034483 441.37931s-95.496828 30.331586-114.511449 77.259035a17.655172 17.655172 0 1 1-32.715034-13.27669C336.225103 445.051586 394.028138 406.068966 459.034483 406.068966s122.809379 38.982621 147.244138 99.292689A17.655172 17.655172 0 0 1 589.929931 529.655172zM317.775448 865.103448a17.478621 17.478621 0 0 1-10.451862-3.442758l-2.824827-2.01269C285.960828 846.406621 229.517241 806.205793 229.517241 723.862069a17.655172 17.655172 0 1 1 35.310345 0c0 64.158897 43.714207 95.284966 60.168828 107.025655l3.283862 2.365793A17.637517 17.637517 0 0 1 317.775448 865.103448z" fill="#FAC176" p-id="2807"></path></svg>